<svg xmlns="http://www.w3.org/2000/svg" viewBox="0 0 2048 1365" width="2048" height="1365">
  <path d="M 1090.0 232.0 L 952.0 232.0 L 853.0 260.0 L 745.0 324.0 L 657.0 420.0 L 608.0 518.0 L 586.0 632.0 L 600.0 762.0 L 628.0 836.0 L 655.0 881.0 L 678.0 820.0 L 645.0 705.0 L 645.0 619.0 L 661.0 546.0 L 689.0 481.0 L 737.0 412.0 L 798.0 355.0 L 854.0 319.0 L 940.0 287.0 L 1028.0 278.0 L 837.0 699.0 L 951.0 659.0 L 1029.0 492.0 L 1097.0 623.0 L 1193.0 593.0 L 1147.0 500.0 L 1101.0 528.0 L 1133.0 468.0 L 1044.0 294.0 Z M 1409.0 523.0 L 1401.0 520.0 L 1424.0 636.0 L 1416.0 726.0 L 1384.0 812.0 L 1335.0 883.0 L 1241.0 696.0 L 1147.0 727.0 L 1256.0 953.0 L 1248.0 963.0 L 1156.0 1011.0 L 1073.0 1031.0 L 977.0 1031.0 L 899.0 1011.0 L 821.0 967.0 L 889.0 818.0 L 887.0 806.0 L 807.0 846.0 L 756.0 891.0 L 745.0 929.0 L 768.0 980.0 L 810.0 1026.0 L 868.0 1066.0 L 940.0 1094.0 L 1013.0 1106.0 L 1145.0 1094.0 L 1215.0 1070.0 L 1287.0 1030.0 L 1341.0 986.0 L 1393.0 925.0 L 1429.0 863.0 L 1453.0 795.0 L 1463.0 735.0 L 1461.0 662.0 L 1445.0 598.0 Z M 1029.0 659.0 L 930.0 686.0 L 823.0 726.0 L 756.0 763.0 L 724.0 788.0 L 704.0 809.0 L 690.0 830.0 L 680.0 853.0 L 676.0 871.0 L 678.0 907.0 L 684.0 928.0 L 700.0 957.0 L 716.0 977.0 L 746.0 1006.0 L 799.0 1041.0 L 803.0 1039.0 L 761.0 998.0 L 745.0 977.0 L 733.0 953.0 L 729.0 940.0 L 729.0 916.0 L 733.0 902.0 L 749.0 876.0 L 774.0 852.0 L 819.0 823.0 L 895.0 788.0 L 971.0 761.0 L 1031.0 665.0 Z M 1369.0 482.0 L 1349.0 462.0 L 1324.0 447.0 L 1323.0 451.0 L 1336.0 469.0 L 1344.0 490.0 L 1344.0 509.0 L 1336.0 528.0 L 1319.0 548.0 L 1282.0 574.0 L 1231.0 598.0 L 1150.0 626.0 L 1057.0 651.0 L 996.0 746.0 L 997.0 753.0 L 1133.0 715.0 L 1228.0 683.0 L 1282.0 659.0 L 1328.0 631.0 L 1361.0 601.0 L 1371.0 587.0 L 1385.0 555.0 L 1387.0 542.0 L 1385.0 515.0 Z M 1183.0 256.0 L 1182.0 261.0 L 1215.0 319.0 L 1232.0 327.0 L 1268.0 351.0 L 1316.0 391.0 L 1388.0 466.0 L 1423.0 516.0 L 1438.0 545.0 L 1443.0 547.0 L 1443.0 540.0 L 1439.0 528.0 L 1437.0 527.0 L 1435.0 517.0 L 1433.0 516.0 L 1433.0 511.0 L 1409.0 457.0 L 1405.0 453.0 L 1405.0 450.0 L 1393.0 429.0 L 1385.0 419.0 L 1385.0 416.0 L 1349.0 370.0 L 1315.0 336.0 L 1275.0 304.0 L 1272.0 304.0 L 1269.0 300.0 L 1266.0 300.0 L 1256.0 292.0 L 1221.0 272.0 L 1217.0 272.0 L 1204.0 264.0 L 1200.0 264.0 L 1195.0 260.0 Z" fill="#f2f3f4" fill-rule="evenodd"/>
</svg>