<svg xmlns="http://www.w3.org/2000/svg" viewBox="0 0 740 740">
<path d="M 351,577 L 357,577 L 358,578 L 364,578 L 365,579 L 369,579 L 365,579 L 364,578 L 358,578 L 357,577" stroke="white" fill="none" stroke-width="1"/><path d="M 329,573 L 345,573 L 346,574 L 354,574 L 355,575 L 358,575 L 355,575 L 354,574 L 346,574 L 345,573" stroke="white" fill="none" stroke-width="1"/><path d="M 532,533 L 530,535 L 529,535 L 528,536 L 527,536 L 525,538 L 524,538 L 522,540 L 521,540 L 519,542 L 518,542 L 516,544 L 515,544 L 513,546 L 512,546 L 510,548 L 509,548 L 507,550 L 506,550 L 504,552 L 503,552 L 501,554 L 500,554 L 498,556 L 497,556 L 496,557 L 495,557 L 493,559 L 492,559 L 490,561 L 489,561 L 487,563 L 486,563 L 485,564 L 484,564 L 482,566 L 481,566 L 480,567 L 479,567 L 478,568 L 477,568 L 476,569 L 475,569 L 473,571 L 472,571 L 471,572 L 470,572 L 469,573 L 468,573 L 466,575 L 465,575 L 464,576 L 463,576 L 462,577 L 461,577 L 460,578 L 459,578 L 458,579 L 456,579 L 455,580 L 454,580 L 453,581 L 451,581 L 450,582 L 447,582 L 446,583 L 443,583 L 442,584 L 437,584 L 436,585 L 428,585 L 427,586 L 403,586 L 402,585 L 395,585 L 394,584 L 388,584 L 394,584 L 395,585 L 402,585 L 403,586 L 412,586 L 413,587 L 413,623 L 414,624 L 414,635 L 415,636 L 415,638 L 416,639 L 415,640 L 415,656 L 414,657 L 414,658 L 415,659 L 415,673 L 416,674 L 416,695 L 417,696 L 417,723 L 417,696 L 416,695 L 416,674 L 415,673 L 415,659 L 414,658 L 414,657 L 415,656 L 415,640 L 416,639 L 415,638 L 415,636 L 414,635 L 414,624 L 413,623 L 413,587 L 414,586 L 415,587 L 415,599 L 416,600 L 416,615 L 417,616 L 417,629 L 418,630 L 418,641 L 419,642 L 419,724 L 419,642 L 418,641 L 418,630 L 417,629 L 417,616 L 416,615 L 416,600 L 415,599 L 415,587 L 416,586 L 427,586 L 428,585 L 436,585 L 437,584 L 442,584 L 443,583 L 446,583 L 447,582 L 450,582 L 451,581 L 453,581 L 454,580 L 456,580 L 457,579 L 458,579 L 459,578 L 461,578 L 463,576 L 465,576 L 467,574 L 468,574 L 469,573 L 470,573 L 471,572 L 472,572 L 473,571 L 474,571 L 476,569 L 477,569 L 478,568 L 479,568 L 480,567 L 481,567 L 483,565 L 484,565 L 485,564 L 486,564 L 488,562 L 489,562 L 490,561 L 491,561 L 493,559 L 494,559 L 496,557 L 497,557 L 498,556 L 499,556 L 501,554 L 502,554 L 504,552 L 505,552 L 507,550 L 508,550 L 510,548 L 511,548 L 513,546 L 514,546 L 516,544 L 517,544 L 519,542 L 520,542 L 522,540 L 523,540 L 525,538 L 526,538 L 528,536 L 529,536 L 530,535 L 531,535 L 533,533 L 543,533 L 544,534 L 546,534 L 547,535 L 548,535 L 549,536 L 550,536 L 551,537 L 553,537 L 554,538 L 556,538 L 557,539 L 559,539 L 560,540 L 561,540 L 562,541 L 563,541 L 564,542 L 565,542 L 566,543 L 567,543 L 569,545 L 570,545 L 571,546 L 572,546 L 574,548 L 575,548 L 577,550 L 578,550 L 581,553 L 582,553 L 588,559 L 589,559 L 612,582 L 612,583 L 635,606 L 635,607 L 636,607 L 639,610 L 623,594 L 623,593 L 587,557 L 586,557 L 581,552 L 580,552 L 577,549 L 576,549 L 574,547 L 573,547 L 571,545 L 570,545 L 569,544 L 568,544 L 567,543 L 566,543 L 565,542 L 564,542 L 563,541 L 562,541 L 561,540 L 560,540 L 559,539 L 557,539 L 556,538 L 554,538 L 553,537 L 552,537 L 551,536 L 550,536 L 549,535 L 547,535 L 546,534 L 544,534 L 543,533" stroke="white" fill="none" stroke-width="1"/><path d="M 709,472 L 708,473 L 703,473 L 708,473 L 709,474 L 714,474 L 715,475 L 719,475 L 720,474 L 724,474 L 720,474 L 719,475 L 715,475 L 714,474 L 715,473 L 718,473 L 715,473 L 714,474 L 709,474 L 708,473 L 709,472 L 713,472" stroke="white" fill="none" stroke-width="1"/><path d="M 661,463 L 660,464 L 656,464 L 660,464 L 661,465 L 664,465 L 665,464 L 670,464 L 671,465 L 670,466 L 666,466 L 670,466 L 671,467 L 675,467 L 676,468 L 679,468 L 680,469 L 684,469 L 680,469 L 679,468 L 676,468 L 675,467 L 676,466 L 680,466 L 681,467 L 686,467 L 687,468 L 688,468 L 687,468 L 686,467 L 681,467 L 680,466 L 676,466 L 675,465 L 671,465 L 670,464 L 665,464 L 664,463" stroke="white" fill="none" stroke-width="1"/><path d="M 83,412 L 96,412 L 97,413 L 104,413 L 105,414 L 113,414 L 114,415 L 122,415 L 123,416 L 129,416 L 130,415 L 138,415 L 139,416 L 138,417 L 131,417 L 138,417 L 139,416 L 147,416 L 139,416 L 138,415 L 130,415 L 129,414 L 123,414 L 122,415 L 114,415 L 113,414 L 105,414 L 104,413 L 97,413 L 96,412" stroke="white" fill="none" stroke-width="1"/><path d="M 295,391 L 294,392 L 289,392 L 288,393 L 282,393 L 281,394 L 276,394 L 275,395 L 270,395 L 269,396 L 263,396 L 262,397 L 257,397 L 256,398 L 251,398 L 250,399 L 248,399 L 247,400 L 244,400 L 243,401 L 241,401 L 240,402 L 237,402 L 236,403 L 234,403 L 233,404 L 230,404 L 229,405 L 227,405 L 226,406 L 223,406 L 222,407 L 220,407 L 219,408 L 216,408 L 215,409 L 213,409 L 212,410 L 209,410 L 208,411 L 206,411 L 205,412 L 203,412 L 205,412 L 206,413 L 205,414 L 202,414 L 201,413 L 199,413 L 198,414 L 196,414 L 198,414 L 199,415 L 198,416 L 195,416 L 194,415 L 192,415 L 191,416 L 189,416 L 191,416 L 192,417 L 191,418 L 188,418 L 187,417 L 185,417 L 184,418 L 177,418 L 184,418 L 185,419 L 184,420 L 161,420 L 184,420 L 185,419 L 187,419 L 188,418 L 191,418 L 192,417 L 194,417 L 195,416 L 198,416 L 199,415 L 201,415 L 202,414 L 205,414 L 206,413 L 208,413 L 209,412 L 212,412 L 213,411 L 215,411 L 216,410 L 219,410 L 220,409 L 223,409 L 224,408 L 226,408 L 227,407 L 229,407 L 230,406 L 233,406 L 234,405 L 236,405 L 237,404 L 240,404 L 241,403 L 243,403 L 244,402 L 247,402 L 248,401 L 250,401 L 251,400 L 257,400 L 258,399 L 263,399 L 264,398 L 269,398 L 270,397 L 276,397 L 277,396 L 285,396 L 286,395 L 312,395 L 313,394 L 320,394 L 321,393 L 325,393 L 326,392 L 330,392 L 331,391 L 336,391 L 337,392 L 337,393 L 338,392 L 337,392 L 336,391 L 331,391 L 330,392 L 326,392 L 325,393 L 321,393 L 320,392 L 321,391 L 324,391 L 321,391 L 320,392 L 313,392 L 320,392 L 321,393 L 320,394 L 313,394 L 312,395 L 286,395 L 285,396 L 277,396 L 276,397 L 270,397 L 269,396 L 270,395 L 275,395 L 276,394 L 281,394 L 282,393 L 288,393 L 289,392 L 294,392 L 295,391 L 301,391" stroke="white" fill="none" stroke-width="1"/><path d="M 336,388 L 335,389 L 330,389 L 329,390 L 326,390 L 329,390 L 330,389 L 335,389 L 336,388 L 343,388" stroke="white" fill="none" stroke-width="1"/><path d="M 336,380 L 335,381 L 329,381 L 328,382 L 324,382 L 323,383 L 320,383 L 319,384 L 315,384 L 314,385 L 308,385 L 307,386 L 292,386 L 291,385 L 286,385 L 285,386 L 272,386 L 271,387 L 267,387 L 266,388 L 261,388 L 260,389 L 254,389 L 253,390 L 248,390 L 247,391 L 240,391 L 239,392 L 231,392 L 230,393 L 222,393 L 221,394 L 202,394 L 201,395 L 196,395 L 195,396 L 188,396 L 187,397 L 180,397 L 179,398 L 173,398 L 172,399 L 165,399 L 164,400 L 154,400 L 153,401 L 132,401 L 131,402 L 128,402 L 127,403 L 122,403 L 121,404 L 109,404 L 108,405 L 94,405 L 93,406 L 83,406 L 82,407 L 55,407 L 54,408 L 42,408 L 41,409 L 40,408 L 32,408 L 31,407 L 23,407 L 22,406 L 16,406 L 15,407 L 10,407 L 9,406 L 10,405 L 14,405 L 10,405 L 9,406 L 4,406 L 3,405 L 4,404 L 8,404 L 4,404 L 3,405 L 4,406 L 9,406 L 10,407 L 15,407 L 16,408 L 21,408 L 22,409 L 27,409 L 28,410 L 35,410 L 36,411 L 56,411 L 57,410 L 60,410 L 61,409 L 66,409 L 61,409 L 60,410 L 57,410 L 56,411 L 36,411 L 35,410 L 28,410 L 27,409 L 22,409 L 21,408 L 16,408 L 15,407 L 16,406 L 22,406 L 23,407 L 31,407 L 32,408 L 40,408 L 41,409 L 42,408 L 54,408 L 55,407 L 82,407 L 83,406 L 93,406 L 94,405 L 108,405 L 109,404 L 121,404 L 122,403 L 127,403 L 128,402 L 131,402 L 132,401 L 153,401 L 154,400 L 164,400 L 165,399 L 172,399 L 173,398 L 179,398 L 180,397 L 187,397 L 188,396 L 195,396 L 196,395 L 201,395 L 202,394 L 221,394 L 222,393 L 230,393 L 231,392 L 239,392 L 240,393 L 239,394 L 232,394 L 231,395 L 224,395 L 223,396 L 216,396 L 215,397 L 210,397 L 209,398 L 203,398 L 202,399 L 194,399 L 193,400 L 182,400 L 181,401 L 171,401 L 170,402 L 159,402 L 158,403 L 149,403 L 148,404 L 144,404 L 143,405 L 138,405 L 137,406 L 113,406 L 112,407 L 97,407 L 96,408 L 89,408 L 88,409 L 75,409 L 88,409 L 89,408 L 96,408 L 97,407 L 112,407 L 113,406 L 137,406 L 138,405 L 143,405 L 144,404 L 148,404 L 149,403 L 158,403 L 159,402 L 170,402 L 171,401 L 181,401 L 182,400 L 193,400 L 194,399 L 202,399 L 203,398 L 209,398 L 210,397 L 215,397 L 216,396 L 223,396 L 224,395 L 231,395 L 232,394 L 239,394 L 240,393 L 246,393 L 240,393 L 239,392 L 240,391 L 247,391 L 248,392 L 254,392 L 255,391 L 261,391 L 262,390 L 267,390 L 268,389 L 272,389 L 273,388 L 295,388 L 296,389 L 299,389 L 300,388 L 309,388 L 310,387 L 318,387 L 319,386 L 325,386 L 326,385 L 333,385 L 334,384 L 340,384 L 341,383 L 343,383 L 344,384 L 346,384 L 347,385 L 349,385 L 350,386 L 346,390 L 345,390 L 343,392 L 342,392 L 338,396 L 337,396 L 334,399 L 333,399 L 331,401 L 330,401 L 327,404 L 326,404 L 324,406 L 323,405 L 324,406 L 323,407 L 322,407 L 320,409 L 319,409 L 316,412 L 315,412 L 313,414 L 312,414 L 309,417 L 308,417 L 306,419 L 305,419 L 303,421 L 302,421 L 299,424 L 298,424 L 295,427 L 294,427 L 292,429 L 291,429 L 288,432 L 287,432 L 284,435 L 283,435 L 282,436 L 281,435 L 282,436 L 281,437 L 280,437 L 277,440 L 276,440 L 273,443 L 272,443 L 269,446 L 268,446 L 264,450 L 263,450 L 259,454 L 258,454 L 253,459 L 252,459 L 247,464 L 247,465 L 245,467 L 245,468 L 244,469 L 244,470 L 243,471 L 243,472 L 241,474 L 241,475 L 240,476 L 240,477 L 238,479 L 238,480 L 237,481 L 237,482 L 236,483 L 236,484 L 234,486 L 234,487 L 233,488 L 233,489 L 231,491 L 231,492 L 230,493 L 230,494 L 228,496 L 228,497 L 227,498 L 227,499 L 225,501 L 225,502 L 223,504 L 223,505 L 222,506 L 222,507 L 220,509 L 220,510 L 219,511 L 219,512 L 217,514 L 217,515 L 216,516 L 216,517 L 214,519 L 214,520 L 213,521 L 213,522 L 211,524 L 211,525 L 210,526 L 210,527 L 208,529 L 208,530 L 207,531 L 207,532 L 206,533 L 206,534 L 204,536 L 204,537 L 202,539 L 202,540 L 201,541 L 201,542 L 199,544 L 199,545 L 197,547 L 197,548 L 195,550 L 195,551 L 194,552 L 194,553 L 193,554 L 193,555 L 191,557 L 191,558 L 190,559 L 190,560 L 188,562 L 188,563 L 186,565 L 186,566 L 185,567 L 185,568 L 182,571 L 182,572 L 180,574 L 180,576 L 177,579 L 177,580 L 176,581 L 176,582 L 174,584 L 174,585 L 172,587 L 172,588 L 171,589 L 171,590 L 169,592 L 169,593 L 167,595 L 167,596 L 165,598 L 165,599 L 164,600 L 164,601 L 161,604 L 161,605 L 159,607 L 159,608 L 157,610 L 157,611 L 154,614 L 154,615 L 152,617 L 152,618 L 150,620 L 150,621 L 148,623 L 148,624 L 145,627 L 145,628 L 142,631 L 142,632 L 140,634 L 140,635 L 137,638 L 137,639 L 133,643 L 133,644 L 128,649 L 128,650 L 120,658 L 119,658 L 118,657 L 117,657 L 118,657 L 119,658 L 118,659 L 117,659 L 116,660 L 113,660 L 112,661 L 110,661 L 109,662 L 107,662 L 106,663 L 105,663 L 104,664 L 102,664 L 100,666 L 99,666 L 98,667 L 97,667 L 96,668 L 95,668 L 93,670 L 92,670 L 91,671 L 90,671 L 88,673 L 87,673 L 85,675 L 84,675 L 83,676 L 82,676 L 80,678 L 79,678 L 76,681 L 75,681 L 73,683 L 72,683 L 70,685 L 69,685 L 67,687 L 66,687 L 64,689 L 63,689 L 60,692 L 59,692 L 57,694 L 56,694 L 53,697 L 52,697 L 49,700 L 48,700 L 45,703 L 44,703 L 41,706 L 40,706 L 37,709 L 36,709 L 32,713 L 31,713 L 28,716 L 27,716 L 24,719 L 23,719 L 18,724 L 17,724 L 14,727 L 13,727 L 8,732 L 7,732 L 4,735 L 4,737 L 3,738 L 1,738 L 0,737 L 0,729 L 1,728 L 0,727 L 0,408 L 1,407 L 0,406 L 1,407 L 0,408 L 0,727 L 1,728 L 0,729 L 0,738 L 1,739 L 2,738 L 3,738 L 4,739 L 5,739 L 4,739 L 3,738 L 4,737 L 4,736 L 5,735 L 6,735 L 7,736 L 6,737 L 7,738 L 134,738 L 135,739 L 191,739 L 192,738 L 193,739 L 194,738 L 198,738 L 199,739 L 200,738 L 208,738 L 209,739 L 210,739 L 211,738 L 212,739 L 213,738 L 214,738 L 215,739 L 216,738 L 253,738 L 254,739 L 271,739 L 272,738 L 515,738 L 516,739 L 517,739 L 518,738 L 519,739 L 524,739 L 525,738 L 526,738 L 527,739 L 528,739 L 529,738 L 539,738 L 540,739 L 541,738 L 558,738 L 559,739 L 560,738 L 738,738 L 739,739 L 739,738 L 560,738 L 559,739 L 558,738 L 541,738 L 540,739 L 539,738 L 529,738 L 528,739 L 527,739 L 526,738 L 525,738 L 524,739 L 519,739 L 518,738 L 517,739 L 516,739 L 515,738 L 272,738 L 271,739 L 254,739 L 253,738 L 216,738 L 215,739 L 214,738 L 213,738 L 212,739 L 211,738 L 210,739 L 209,739 L 208,738 L 200,738 L 199,739 L 198,738 L 194,738 L 193,739 L 192,738 L 191,739 L 135,739 L 134,738 L 7,738 L 6,737 L 7,736 L 8,736 L 13,731 L 14,731 L 17,728 L 18,728 L 22,724 L 23,724 L 27,720 L 28,720 L 31,717 L 32,717 L 36,713 L 37,713 L 40,710 L 41,710 L 44,707 L 45,707 L 48,704 L 49,704 L 52,701 L 53,701 L 55,699 L 56,699 L 59,696 L 60,696 L 62,694 L 63,694 L 66,691 L 67,691 L 69,689 L 70,689 L 71,688 L 72,688 L 75,685 L 76,685 L 78,683 L 79,683 L 81,681 L 82,681 L 84,679 L 85,679 L 86,678 L 87,678 L 89,676 L 90,676 L 92,674 L 93,674 L 94,673 L 95,673 L 97,671 L 98,671 L 99,670 L 100,670 L 102,668 L 103,668 L 104,667 L 105,667 L 106,666 L 107,666 L 108,665 L 110,665 L 111,664 L 112,664 L 113,663 L 117,663 L 118,662 L 119,662 L 120,661 L 122,661 L 136,647 L 136,646 L 140,642 L 140,641 L 143,638 L 143,637 L 146,634 L 146,633 L 150,629 L 150,628 L 152,626 L 152,625 L 155,622 L 155,621 L 157,619 L 157,618 L 160,615 L 160,614 L 161,613 L 161,612 L 163,610 L 163,609 L 165,607 L 165,606 L 167,604 L 167,603 L 170,600 L 170,599 L 173,596 L 173,595 L 175,593 L 175,592 L 177,590 L 177,589 L 179,587 L 179,586 L 181,584 L 181,583 L 184,580 L 184,579 L 188,575 L 188,574 L 190,572 L 190,571 L 191,570 L 191,569 L 192,568 L 192,566 L 194,564 L 194,562 L 196,560 L 196,559 L 198,557 L 198,556 L 199,555 L 199,554 L 201,552 L 201,551 L 202,550 L 202,549 L 204,547 L 204,546 L 206,544 L 206,543 L 207,542 L 207,541 L 208,540 L 208,539 L 210,537 L 210,536 L 211,535 L 211,534 L 213,532 L 213,531 L 214,530 L 214,529 L 215,528 L 215,527 L 217,525 L 217,524 L 218,523 L 218,522 L 220,520 L 220,519 L 221,518 L 221,517 L 224,514 L 227,514 L 228,515 L 231,515 L 233,517 L 234,517 L 235,518 L 236,518 L 238,520 L 239,520 L 241,522 L 242,522 L 245,525 L 246,525 L 250,529 L 251,529 L 254,532 L 255,532 L 258,535 L 259,535 L 261,537 L 262,537 L 265,540 L 266,540 L 269,543 L 270,543 L 277,550 L 278,550 L 282,554 L 283,554 L 287,558 L 288,558 L 292,562 L 293,562 L 297,566 L 298,566 L 301,569 L 302,569 L 304,571 L 305,571 L 306,572 L 308,572 L 309,573 L 311,573 L 312,574 L 316,574 L 317,575 L 336,575 L 317,575 L 316,574 L 312,574 L 311,573 L 309,573 L 308,572 L 307,572 L 306,571 L 305,571 L 303,569 L 302,569 L 299,566 L 298,566 L 294,562 L 293,562 L 289,558 L 288,558 L 284,554 L 283,554 L 279,550 L 278,550 L 271,543 L 270,543 L 267,540 L 266,540 L 264,538 L 263,538 L 260,535 L 259,535 L 257,533 L 256,533 L 253,530 L 252,530 L 248,526 L 247,526 L 243,522 L 243,521 L 244,520 L 248,524 L 249,524 L 253,528 L 254,528 L 257,531 L 258,531 L 260,533 L 261,533 L 264,536 L 265,536 L 267,538 L 268,538 L 271,541 L 272,541 L 276,545 L 277,545 L 282,550 L 283,550 L 287,554 L 288,554 L 291,557 L 292,557 L 296,561 L 297,561 L 301,565 L 302,565 L 303,566 L 304,566 L 305,567 L 306,567 L 307,568 L 309,568 L 310,569 L 312,569 L 313,570 L 319,570 L 320,571 L 331,571 L 332,570 L 342,570 L 343,571 L 351,571 L 352,572 L 356,572 L 357,573 L 359,573 L 361,575 L 363,575 L 364,576 L 367,576 L 368,577 L 371,577 L 372,578 L 375,578 L 376,579 L 379,579 L 380,580 L 385,580 L 386,581 L 407,581 L 408,582 L 421,582 L 422,583 L 424,583 L 425,582 L 438,582 L 439,581 L 443,581 L 444,580 L 446,580 L 447,579 L 449,579 L 450,578 L 452,578 L 453,577 L 454,577 L 455,576 L 457,576 L 458,575 L 460,575 L 461,574 L 462,574 L 463,573 L 464,573 L 465,572 L 466,572 L 467,571 L 468,571 L 470,569 L 471,569 L 472,568 L 473,568 L 475,566 L 476,566 L 477,565 L 478,565 L 480,563 L 481,563 L 482,562 L 483,562 L 485,560 L 486,560 L 487,559 L 488,559 L 490,557 L 491,557 L 492,556 L 493,556 L 495,554 L 496,554 L 498,552 L 499,552 L 500,551 L 501,551 L 503,549 L 504,549 L 506,547 L 507,547 L 509,545 L 510,545 L 512,543 L 513,543 L 515,541 L 516,541 L 518,539 L 519,539 L 521,537 L 522,537 L 527,532 L 527,530 L 526,530 L 525,529 L 523,529 L 522,528 L 519,528 L 517,526 L 516,526 L 515,525 L 514,525 L 512,523 L 511,523 L 505,517 L 505,516 L 503,514 L 503,513 L 498,508 L 498,507 L 494,503 L 494,502 L 492,500 L 492,499 L 490,497 L 490,496 L 488,494 L 488,493 L 487,492 L 487,491 L 486,490 L 486,489 L 485,488 L 485,487 L 484,486 L 484,485 L 483,484 L 483,483 L 482,482 L 482,479 L 481,478 L 481,476 L 480,475 L 480,473 L 479,472 L 479,467 L 478,466 L 478,463 L 477,462 L 477,459 L 476,458 L 476,456 L 475,455 L 475,452 L 474,451 L 474,449 L 473,448 L 473,446 L 474,445 L 475,446 L 475,447 L 476,448 L 476,449 L 477,450 L 477,452 L 478,453 L 478,454 L 479,455 L 479,457 L 480,458 L 480,460 L 481,461 L 481,462 L 483,464 L 483,466 L 484,467 L 484,470 L 485,471 L 485,474 L 486,475 L 486,478 L 487,479 L 487,481 L 488,482 L 488,485 L 490,487 L 490,489 L 491,490 L 491,491 L 492,492 L 492,493 L 493,494 L 493,495 L 495,497 L 495,499 L 496,500 L 496,502 L 500,506 L 500,507 L 505,512 L 505,513 L 511,519 L 512,519 L 513,520 L 515,520 L 516,521 L 518,521 L 519,522 L 521,522 L 522,523 L 524,523 L 525,524 L 527,524 L 528,525 L 529,525 L 530,526 L 532,526 L 533,527 L 535,527 L 538,530 L 539,530 L 540,531 L 544,531 L 545,532 L 547,532 L 548,533 L 550,533 L 551,534 L 553,534 L 554,535 L 555,535 L 556,536 L 558,536 L 559,537 L 560,537 L 561,538 L 562,538 L 563,539 L 564,539 L 565,540 L 566,540 L 567,541 L 568,541 L 569,542 L 570,542 L 571,543 L 572,543 L 574,545 L 575,545 L 577,547 L 578,547 L 581,550 L 582,550 L 587,555 L 588,555 L 625,592 L 625,593 L 641,609 L 641,610 L 644,613 L 645,613 L 646,614 L 646,615 L 653,622 L 650,619 L 650,618 L 636,604 L 636,603 L 587,554 L 586,554 L 581,549 L 580,549 L 577,546 L 576,546 L 574,544 L 573,544 L 572,543 L 571,543 L 569,541 L 568,541 L 567,540 L 566,540 L 565,539 L 564,539 L 563,538 L 562,538 L 561,537 L 559,537 L 558,536 L 556,536 L 555,535 L 554,535 L 553,534 L 551,534 L 550,533 L 548,533 L 547,532 L 545,532 L 544,531 L 541,531 L 540,530 L 539,530 L 536,527 L 533,527 L 532,526 L 531,526 L 530,525 L 528,525 L 527,524 L 525,524 L 524,523 L 522,523 L 521,522 L 519,522 L 518,521 L 516,521 L 515,520 L 514,520 L 513,519 L 512,519 L 504,511 L 504,510 L 500,506 L 500,505 L 496,501 L 496,500 L 495,499 L 495,497 L 494,496 L 494,495 L 493,494 L 493,493 L 492,492 L 492,491 L 491,490 L 491,489 L 490,488 L 490,487 L 489,486 L 489,485 L 488,484 L 488,482 L 487,481 L 487,479 L 486,478 L 486,475 L 485,474 L 485,471 L 484,470 L 484,467 L 483,466 L 483,463 L 480,460 L 480,458 L 479,457 L 479,455 L 478,454 L 478,452 L 477,451 L 477,450 L 476,449 L 476,448 L 475,447 L 475,445 L 474,444 L 474,443 L 473,442 L 473,441 L 472,440 L 472,438 L 471,437 L 471,436 L 470,435 L 470,433 L 469,432 L 469,431 L 469,432 L 468,433 L 467,432 L 467,430 L 468,429 L 468,428 L 467,427 L 467,425 L 466,424 L 466,422 L 465,421 L 465,418 L 464,417 L 464,415 L 463,414 L 463,412 L 462,411 L 462,409 L 461,408 L 462,409 L 462,411 L 461,412 L 460,411 L 460,410 L 459,409 L 459,408 L 456,405 L 456,404 L 455,403 L 454,403 L 450,399 L 449,399 L 448,398 L 446,398 L 445,397 L 441,397 L 440,396 L 437,396 L 436,395 L 433,395 L 432,394 L 429,394 L 428,393 L 424,393 L 423,392 L 421,392 L 420,393 L 420,395 L 419,396 L 419,398 L 418,399 L 418,402 L 417,403 L 417,406 L 418,407 L 418,409 L 419,410 L 419,411 L 420,412 L 420,413 L 421,414 L 421,416 L 420,417 L 419,416 L 419,415 L 418,414 L 418,413 L 417,412 L 417,411 L 416,410 L 416,409 L 415,408 L 415,407 L 414,406 L 414,404 L 413,403 L 413,402 L 411,400 L 411,399 L 410,398 L 410,397 L 409,396 L 409,395 L 408,394 L 408,393 L 407,392 L 407,391 L 405,391 L 404,390 L 401,390 L 400,389 L 399,389 L 398,390 L 397,390 L 397,392 L 396,393 L 396,394 L 394,396 L 394,397 L 393,398 L 393,399 L 392,400 L 392,402 L 390,404 L 390,405 L 389,406 L 389,407 L 388,408 L 388,409 L 387,410 L 387,411 L 386,412 L 386,414 L 385,415 L 385,416 L 384,417 L 384,419 L 383,420 L 383,421 L 382,422 L 382,423 L 379,426 L 379,427 L 372,434 L 372,435 L 371,436 L 371,437 L 370,438 L 370,440 L 369,441 L 369,443 L 367,445 L 367,447 L 366,448 L 366,449 L 365,450 L 365,454 L 364,455 L 364,463 L 363,464 L 363,465 L 362,466 L 362,468 L 360,470 L 360,472 L 359,473 L 359,474 L 358,475 L 358,476 L 357,477 L 357,478 L 356,479 L 356,480 L 355,481 L 355,482 L 353,484 L 353,485 L 352,486 L 352,487 L 351,488 L 351,489 L 350,490 L 350,491 L 348,493 L 347,493 L 346,492 L 346,491 L 347,490 L 347,489 L 348,488 L 348,487 L 350,485 L 350,484 L 351,483 L 351,482 L 353,480 L 353,479 L 354,478 L 354,477 L 355,476 L 355,475 L 356,474 L 356,473 L 357,472 L 357,471 L 358,470 L 358,469 L 359,468 L 359,467 L 360,466 L 360,465 L 361,464 L 361,463 L 362,462 L 362,451 L 363,450 L 363,448 L 364,447 L 364,445 L 365,444 L 365,441 L 366,440 L 366,438 L 367,437 L 367,435 L 368,434 L 368,432 L 369,431 L 369,425 L 368,424 L 368,423 L 369,422 L 369,417 L 370,416 L 370,409 L 371,408 L 371,399 L 372,398 L 372,386 L 374,384 L 373,385 L 368,385 L 367,386 L 364,386 L 363,387 L 360,387 L 359,388 L 356,388 L 355,389 L 354,389 L 353,388 L 352,388 L 353,388 L 354,389 L 351,392 L 350,392 L 347,395 L 346,395 L 344,397 L 343,397 L 341,399 L 340,399 L 338,401 L 337,401 L 334,404 L 333,404 L 332,403 L 331,403 L 330,402 L 331,401 L 332,401 L 334,399 L 335,399 L 338,396 L 339,396 L 343,392 L 344,392 L 346,390 L 347,390 L 350,387 L 350,385 L 348,385 L 347,384 L 344,384 L 343,383 L 341,383 L 340,384 L 334,384 L 333,385 L 326,385 L 325,386 L 319,386 L 318,387 L 310,387 L 309,388 L 300,388 L 299,389 L 296,389 L 295,388 L 280,388 L 279,387 L 280,386 L 285,386 L 286,385 L 291,385 L 292,386 L 307,386 L 308,385 L 314,385 L 315,384 L 319,384 L 320,383 L 323,383 L 324,382 L 328,382 L 329,381 L 335,381 L 336,380 L 338,380" stroke="white" fill="none" stroke-width="1"/><path d="M 502,374 L 501,375 L 497,375 L 501,375 L 502,376 L 505,376 L 506,375 L 510,375 L 511,376 L 510,377 L 507,377 L 510,377 L 511,376 L 515,376 L 516,377 L 515,378 L 512,378 L 515,378 L 516,377 L 518,377 L 516,377 L 515,376 L 511,376 L 510,375 L 506,375 L 505,374" stroke="white" fill="none" stroke-width="1"/><path d="M 443,356 L 442,357 L 440,357 L 440,364 L 441,365 L 441,368 L 442,369 L 442,372 L 443,373 L 443,375 L 444,376 L 444,379 L 445,380 L 445,382 L 446,383 L 446,385 L 447,386 L 447,388 L 448,389 L 448,391 L 450,393 L 450,394 L 452,396 L 453,396 L 455,398 L 454,399 L 454,400 L 455,400 L 457,402 L 458,402 L 462,406 L 463,406 L 468,411 L 469,411 L 470,412 L 471,412 L 473,414 L 475,414 L 477,416 L 478,416 L 479,417 L 481,417 L 483,419 L 485,419 L 486,420 L 487,420 L 488,421 L 489,421 L 490,422 L 491,422 L 492,423 L 494,423 L 495,424 L 496,424 L 497,425 L 498,425 L 499,426 L 500,426 L 502,428 L 504,428 L 505,429 L 507,429 L 508,430 L 509,430 L 510,431 L 511,431 L 512,432 L 513,432 L 514,433 L 516,433 L 518,435 L 520,435 L 521,436 L 522,436 L 523,437 L 525,437 L 527,439 L 529,439 L 530,440 L 536,440 L 537,441 L 541,441 L 542,442 L 547,442 L 548,443 L 553,443 L 554,444 L 558,444 L 559,445 L 563,445 L 564,446 L 567,446 L 568,447 L 571,447 L 572,448 L 575,448 L 576,449 L 578,449 L 579,450 L 581,450 L 582,451 L 585,451 L 586,452 L 589,452 L 590,453 L 593,453 L 594,454 L 597,454 L 599,456 L 598,457 L 598,458 L 597,459 L 597,461 L 596,462 L 596,464 L 595,465 L 595,469 L 594,470 L 594,474 L 593,475 L 593,479 L 592,480 L 592,482 L 591,483 L 591,484 L 590,485 L 590,486 L 589,487 L 589,488 L 588,489 L 588,490 L 586,492 L 586,493 L 583,496 L 583,497 L 574,506 L 573,506 L 567,512 L 566,512 L 565,513 L 564,513 L 561,516 L 560,516 L 558,518 L 557,518 L 556,519 L 555,519 L 554,520 L 553,520 L 551,522 L 550,522 L 549,523 L 547,523 L 546,524 L 545,524 L 544,525 L 542,525 L 541,526 L 538,526 L 542,526 L 543,525 L 545,525 L 546,524 L 547,524 L 548,523 L 550,523 L 551,522 L 552,522 L 554,520 L 555,520 L 556,519 L 557,519 L 558,518 L 559,518 L 562,515 L 563,515 L 565,513 L 566,513 L 567,512 L 568,512 L 574,506 L 575,506 L 583,498 L 583,497 L 586,494 L 586,493 L 587,492 L 587,491 L 588,490 L 588,489 L 589,488 L 589,487 L 590,486 L 590,485 L 591,484 L 591,483 L 592,482 L 593,483 L 593,485 L 592,486 L 592,487 L 591,488 L 591,489 L 590,490 L 590,491 L 589,492 L 589,493 L 588,494 L 588,495 L 586,497 L 586,498 L 583,501 L 583,502 L 573,512 L 572,512 L 567,517 L 566,517 L 565,518 L 564,518 L 561,521 L 560,521 L 558,523 L 557,523 L 556,524 L 555,524 L 553,526 L 552,526 L 551,527 L 550,527 L 549,528 L 547,528 L 546,529 L 542,529 L 546,529 L 547,528 L 549,528 L 550,527 L 552,527 L 553,526 L 554,526 L 556,524 L 557,524 L 558,523 L 559,523 L 561,521 L 562,521 L 565,518 L 566,518 L 568,516 L 569,516 L 573,512 L 574,512 L 583,503 L 583,502 L 585,500 L 585,499 L 588,496 L 588,495 L 589,494 L 589,493 L 590,492 L 590,491 L 591,490 L 591,488 L 592,487 L 592,486 L 593,485 L 593,483 L 594,482 L 594,480 L 595,479 L 595,477 L 596,476 L 596,474 L 597,473 L 597,472 L 598,471 L 598,469 L 600,467 L 600,466 L 601,465 L 601,464 L 602,463 L 602,462 L 603,461 L 603,460 L 605,458 L 606,459 L 605,458 L 607,456 L 608,456 L 609,457 L 613,457 L 614,458 L 618,458 L 619,459 L 623,459 L 624,460 L 629,460 L 630,461 L 637,461 L 638,462 L 647,462 L 648,461 L 654,461 L 655,462 L 654,463 L 649,463 L 654,463 L 655,462 L 659,462 L 655,462 L 654,461 L 648,461 L 647,460 L 640,460 L 639,459 L 633,459 L 632,458 L 628,458 L 627,457 L 624,457 L 623,456 L 620,456 L 619,455 L 616,455 L 615,454 L 613,454 L 612,453 L 609,453 L 608,452 L 606,452 L 605,451 L 604,451 L 603,450 L 601,450 L 600,449 L 598,449 L 597,448 L 590,448 L 589,447 L 581,447 L 580,446 L 573,446 L 572,445 L 568,445 L 567,444 L 564,444 L 563,443 L 559,443 L 558,442 L 554,442 L 553,441 L 548,441 L 547,442 L 542,442 L 541,441 L 542,440 L 546,440 L 542,440 L 541,441 L 537,441 L 536,440 L 537,439 L 540,439 L 537,439 L 536,440 L 533,440 L 532,439 L 533,438 L 534,438 L 532,438 L 532,439 L 531,440 L 530,440 L 529,439 L 528,439 L 527,438 L 526,438 L 525,437 L 526,436 L 527,436 L 526,435 L 524,435 L 523,434 L 522,434 L 521,433 L 520,433 L 519,432 L 517,432 L 516,431 L 515,431 L 514,430 L 513,430 L 512,429 L 511,429 L 510,428 L 509,428 L 507,426 L 506,426 L 504,424 L 503,424 L 501,422 L 499,422 L 498,421 L 497,421 L 496,420 L 494,420 L 493,419 L 491,419 L 489,417 L 487,417 L 486,416 L 485,416 L 484,415 L 482,415 L 480,413 L 477,413 L 475,411 L 474,411 L 473,410 L 472,410 L 471,409 L 470,409 L 464,403 L 463,403 L 461,401 L 460,401 L 458,399 L 457,399 L 454,396 L 453,396 L 450,393 L 450,392 L 448,390 L 448,389 L 447,388 L 447,386 L 446,385 L 446,383 L 445,382 L 445,380 L 444,379 L 444,376 L 443,375 L 443,373 L 442,372 L 442,369 L 441,368 L 441,365 L 440,364 L 440,358 L 441,357 L 442,357 L 443,358 L 444,358 L 445,359 L 447,359 L 448,360 L 449,360 L 450,361 L 451,361 L 452,362 L 454,362 L 455,363 L 457,363 L 458,364 L 460,364 L 461,365 L 462,365 L 463,366 L 464,366 L 465,367 L 467,367 L 468,368 L 470,368 L 471,369 L 473,369 L 474,370 L 477,370 L 478,371 L 481,371 L 482,372 L 485,372 L 486,371 L 490,371 L 491,372 L 490,373 L 487,373 L 490,373 L 491,372 L 495,372 L 496,373 L 495,374 L 492,374 L 495,374 L 496,373 L 500,373 L 496,373 L 495,372 L 491,372 L 490,371 L 486,371 L 485,370 L 482,370 L 481,369 L 478,369 L 477,368 L 474,368 L 473,367 L 471,367 L 470,366 L 468,366 L 467,365 L 466,365 L 465,364 L 463,364 L 462,363 L 461,363 L 460,362 L 458,362 L 457,361 L 456,361 L 455,360 L 453,360 L 452,359 L 451,359 L 450,358 L 448,358 L 447,357 L 446,357 L 445,356" stroke="white" fill="none" stroke-width="1"/><path d="M 558,353 L 563,353 L 564,354 L 571,354 L 572,355 L 578,355 L 572,355 L 571,354 L 564,354 L 563,353" stroke="white" fill="none" stroke-width="1"/><path d="M 465,346 L 464,347 L 457,347 L 456,348 L 452,348 L 451,349 L 449,349 L 447,351 L 446,351 L 445,352 L 444,352 L 442,354 L 443,354 L 445,352 L 446,352 L 448,350 L 449,350 L 450,349 L 451,349 L 452,348 L 456,348 L 457,347 L 464,347 L 465,346 L 495,346 L 496,347 L 510,347 L 511,348 L 518,348 L 519,349 L 526,349 L 527,350 L 531,350 L 532,351 L 536,351 L 537,352 L 543,352 L 544,353 L 548,353 L 549,354 L 553,354 L 554,355 L 560,355 L 561,356 L 566,356 L 567,357 L 572,357 L 573,358 L 579,358 L 580,359 L 588,359 L 589,360 L 595,360 L 596,361 L 600,361 L 601,362 L 605,362 L 606,363 L 609,363 L 610,364 L 613,364 L 614,365 L 617,365 L 618,366 L 621,366 L 622,367 L 625,367 L 626,368 L 629,368 L 630,369 L 632,369 L 633,370 L 636,370 L 637,371 L 640,371 L 641,372 L 644,372 L 645,373 L 648,373 L 649,374 L 652,374 L 653,375 L 656,375 L 657,376 L 661,376 L 662,377 L 664,377 L 665,378 L 667,378 L 668,379 L 671,379 L 668,379 L 667,378 L 665,378 L 664,377 L 662,377 L 661,376 L 657,376 L 656,375 L 653,375 L 652,374 L 649,374 L 648,373 L 645,373 L 644,372 L 641,372 L 640,371 L 637,371 L 636,370 L 633,370 L 632,369 L 630,369 L 629,368 L 626,368 L 625,367 L 622,367 L 621,366 L 618,366 L 617,365 L 614,365 L 613,364 L 610,364 L 609,363 L 606,363 L 605,362 L 601,362 L 600,361 L 596,361 L 595,360 L 589,360 L 588,359 L 580,359 L 579,358 L 573,358 L 572,357 L 567,357 L 566,356 L 561,356 L 560,355 L 554,355 L 553,354 L 549,354 L 548,353 L 544,353 L 543,352 L 537,352 L 536,351 L 532,351 L 531,350 L 527,350 L 526,349 L 519,349 L 518,348 L 511,348 L 510,347 L 496,347 L 495,346" stroke="white" fill="none" stroke-width="1"/><path d="M 476,343 L 475,344 L 461,344 L 460,345 L 455,345 L 454,346 L 455,345 L 460,345 L 461,344 L 475,344 L 476,343 L 490,343 L 491,344 L 509,344 L 510,345 L 522,345 L 523,346 L 532,346 L 533,347 L 541,347 L 542,348 L 551,348 L 552,349 L 558,349 L 559,350 L 566,350 L 567,351 L 572,351 L 573,352 L 577,352 L 578,353 L 581,353 L 582,354 L 585,354 L 586,355 L 589,355 L 590,356 L 593,356 L 594,357 L 597,357 L 598,358 L 601,358 L 602,359 L 605,359 L 606,360 L 610,360 L 611,361 L 614,361 L 615,362 L 618,362 L 619,363 L 622,363 L 623,364 L 626,364 L 627,365 L 630,365 L 631,366 L 634,366 L 635,367 L 638,367 L 639,368 L 642,368 L 643,369 L 646,369 L 647,370 L 649,370 L 650,371 L 653,371 L 654,372 L 657,372 L 658,373 L 660,373 L 661,374 L 663,374 L 664,375 L 665,374 L 666,375 L 668,375 L 669,376 L 670,376 L 671,377 L 672,377 L 671,376 L 669,376 L 668,375 L 666,375 L 665,374 L 662,374 L 661,373 L 658,373 L 657,372 L 654,372 L 653,371 L 650,371 L 649,370 L 647,370 L 646,369 L 643,369 L 642,368 L 639,368 L 638,367 L 635,367 L 634,366 L 631,366 L 630,365 L 627,365 L 626,364 L 623,364 L 622,363 L 619,363 L 618,362 L 615,362 L 614,361 L 611,361 L 610,360 L 606,360 L 605,359 L 602,359 L 601,358 L 598,358 L 597,357 L 594,357 L 593,356 L 590,356 L 589,355 L 586,355 L 585,354 L 582,354 L 581,353 L 578,353 L 577,352 L 573,352 L 572,351 L 567,351 L 566,350 L 559,350 L 558,349 L 552,349 L 551,348 L 542,348 L 541,347 L 533,347 L 532,346 L 523,346 L 522,345 L 510,345 L 509,344 L 491,344 L 490,343" stroke="white" fill="none" stroke-width="1"/><path d="M 5,317 L 8,317 L 9,318 L 13,318 L 14,319 L 17,319 L 18,320 L 20,320 L 21,321 L 24,321 L 25,322 L 27,322 L 28,323 L 30,323 L 31,324 L 33,324 L 34,325 L 36,325 L 37,326 L 39,326 L 40,327 L 41,327 L 42,328 L 44,328 L 45,329 L 47,329 L 48,330 L 50,330 L 51,331 L 52,331 L 53,332 L 55,332 L 56,333 L 58,333 L 59,334 L 61,334 L 62,335 L 64,335 L 65,336 L 66,336 L 67,337 L 69,337 L 70,338 L 72,338 L 73,339 L 75,339 L 76,340 L 79,340 L 80,341 L 82,341 L 83,342 L 86,342 L 87,343 L 90,343 L 91,344 L 95,344 L 96,345 L 101,345 L 102,346 L 109,346 L 110,347 L 118,347 L 119,348 L 136,348 L 137,349 L 153,349 L 154,348 L 179,348 L 180,347 L 221,347 L 222,348 L 341,348 L 222,348 L 221,347 L 180,347 L 179,348 L 154,348 L 153,349 L 137,349 L 136,348 L 119,348 L 118,347 L 110,347 L 109,346 L 102,346 L 101,345 L 96,345 L 95,344 L 91,344 L 90,343 L 87,343 L 86,342 L 83,342 L 82,341 L 80,341 L 79,340 L 76,340 L 75,339 L 73,339 L 72,338 L 70,338 L 69,337 L 67,337 L 66,336 L 65,336 L 64,335 L 62,335 L 61,334 L 59,334 L 58,333 L 56,333 L 55,332 L 53,332 L 52,331 L 51,331 L 50,330 L 48,330 L 47,329 L 45,329 L 44,328 L 42,328 L 41,327 L 40,327 L 39,326 L 37,326 L 36,325 L 34,325 L 33,324 L 31,324 L 30,323 L 28,323 L 27,322 L 25,322 L 24,321 L 21,321 L 20,320 L 18,320 L 17,319 L 14,319 L 13,318 L 9,318 L 8,317" stroke="white" fill="none" stroke-width="1"/><path d="M 3,317 L 3,318 L 4,319 L 7,319 L 8,320 L 11,320 L 12,321 L 15,321 L 16,322 L 18,322 L 19,323 L 22,323 L 23,324 L 25,324 L 26,325 L 28,325 L 29,326 L 31,326 L 32,327 L 34,327 L 35,328 L 37,328 L 38,329 L 40,329 L 41,330 L 42,330 L 43,331 L 45,331 L 46,332 L 48,332 L 49,333 L 51,333 L 52,334 L 54,334 L 55,335 L 57,335 L 58,336 L 60,336 L 61,337 L 62,337 L 63,338 L 65,338 L 66,339 L 68,339 L 69,340 L 71,340 L 72,341 L 74,341 L 75,342 L 77,342 L 78,343 L 80,343 L 81,344 L 84,344 L 85,345 L 87,345 L 88,346 L 91,346 L 92,347 L 95,347 L 96,348 L 100,348 L 101,349 L 107,349 L 108,350 L 116,350 L 117,351 L 178,351 L 179,352 L 264,352 L 265,351 L 274,351 L 275,352 L 287,352 L 288,353 L 290,353 L 291,354 L 293,354 L 294,355 L 295,355 L 297,357 L 298,357 L 300,359 L 301,359 L 303,361 L 304,361 L 305,362 L 306,362 L 308,364 L 309,364 L 311,366 L 312,366 L 313,367 L 314,367 L 315,368 L 316,368 L 317,369 L 319,369 L 320,370 L 322,370 L 324,372 L 326,372 L 328,374 L 329,374 L 330,375 L 331,375 L 332,376 L 333,376 L 334,377 L 335,377 L 336,378 L 338,378 L 337,378 L 336,377 L 335,377 L 334,376 L 333,376 L 332,375 L 330,375 L 328,373 L 327,373 L 326,372 L 325,372 L 324,371 L 323,371 L 322,370 L 321,370 L 320,369 L 318,369 L 317,368 L 316,368 L 315,367 L 314,367 L 313,366 L 312,366 L 311,365 L 310,365 L 307,362 L 306,362 L 305,361 L 304,361 L 302,359 L 301,359 L 299,357 L 298,357 L 296,355 L 295,355 L 294,354 L 292,354 L 291,353 L 288,353 L 287,352 L 275,352 L 274,351 L 274,350 L 273,351 L 265,351 L 264,352 L 179,352 L 178,351 L 117,351 L 116,350 L 108,350 L 107,349 L 101,349 L 100,348 L 96,348 L 95,347 L 92,347 L 91,346 L 88,346 L 87,345 L 85,345 L 84,344 L 81,344 L 80,343 L 78,343 L 77,342 L 75,342 L 74,341 L 72,341 L 71,340 L 69,340 L 68,339 L 66,339 L 65,338 L 63,338 L 62,337 L 61,337 L 60,336 L 58,336 L 57,335 L 55,335 L 54,334 L 52,334 L 51,333 L 49,333 L 48,332 L 46,332 L 45,331 L 43,331 L 42,330 L 41,330 L 40,329 L 38,329 L 37,328 L 35,328 L 34,327 L 32,327 L 31,326 L 29,326 L 28,325 L 26,325 L 25,324 L 23,324 L 22,323 L 19,323 L 18,322 L 16,322 L 15,321 L 12,321 L 11,320 L 8,320 L 7,319 L 4,319 L 3,318" stroke="white" fill="none" stroke-width="1"/><path d="M 382,311 L 382,319 L 376,325 L 371,325 L 370,324 L 369,324 L 370,324 L 371,325 L 376,325 L 377,324 L 378,324 L 381,321 L 381,320 L 382,319" stroke="white" fill="none" stroke-width="1"/><path d="M 351,305 L 352,305 L 353,306 L 353,309 L 352,310 L 351,309 L 352,310 L 353,309 L 354,310 L 354,311 L 356,313 L 356,314 L 359,317 L 359,318 L 362,321 L 364,321 L 365,322 L 366,322 L 367,323 L 366,322 L 365,322 L 364,321 L 363,321 L 359,317 L 359,316 L 356,313 L 356,312 L 354,310 L 354,309 L 353,308 L 353,305" stroke="white" fill="none" stroke-width="1"/><path d="M 180,264 L 181,264 L 183,266 L 184,266 L 187,269 L 188,269 L 191,272 L 192,272 L 195,275 L 196,275 L 200,279 L 201,279 L 203,281 L 204,281 L 206,283 L 205,284 L 204,284 L 203,283 L 202,283 L 200,281 L 199,281 L 195,277 L 194,277 L 191,274 L 190,274 L 187,271 L 186,271 L 183,268 L 182,268 L 180,266 L 182,268 L 183,268 L 186,271 L 187,271 L 191,275 L 192,275 L 195,278 L 196,278 L 199,281 L 200,281 L 202,283 L 203,283 L 204,284 L 205,284 L 207,286 L 208,286 L 209,287 L 210,287 L 212,289 L 213,289 L 214,290 L 215,290 L 216,291 L 217,291 L 219,293 L 220,293 L 221,294 L 222,294 L 223,295 L 224,295 L 225,296 L 226,296 L 227,297 L 228,297 L 229,298 L 230,298 L 232,300 L 233,300 L 234,301 L 235,301 L 237,303 L 238,303 L 239,304 L 240,304 L 241,305 L 242,305 L 243,306 L 244,306 L 246,308 L 247,308 L 248,309 L 249,309 L 250,310 L 251,310 L 252,311 L 253,311 L 254,312 L 255,312 L 256,313 L 257,313 L 258,314 L 260,314 L 261,315 L 262,315 L 263,316 L 265,316 L 266,317 L 267,317 L 268,318 L 269,318 L 270,319 L 272,319 L 273,320 L 275,320 L 276,321 L 278,321 L 279,322 L 281,322 L 282,323 L 284,323 L 285,324 L 287,324 L 288,325 L 290,325 L 291,326 L 293,326 L 294,327 L 296,327 L 297,328 L 299,328 L 300,329 L 302,329 L 303,330 L 305,330 L 306,331 L 309,331 L 310,332 L 311,332 L 312,333 L 315,333 L 316,334 L 318,334 L 319,335 L 321,335 L 322,336 L 325,336 L 326,337 L 328,337 L 329,338 L 331,338 L 332,339 L 335,339 L 336,340 L 339,340 L 340,341 L 343,341 L 344,342 L 348,342 L 349,343 L 351,343 L 352,344 L 354,344 L 355,345 L 355,346 L 354,347 L 353,347 L 352,348 L 349,348 L 348,349 L 347,349 L 348,349 L 349,348 L 353,348 L 354,347 L 355,347 L 355,346 L 356,345 L 355,344 L 352,344 L 351,343 L 349,343 L 348,342 L 344,342 L 343,341 L 340,341 L 339,340 L 336,340 L 335,339 L 332,339 L 331,338 L 330,338 L 329,337 L 326,337 L 325,336 L 322,336 L 321,335 L 320,335 L 319,334 L 316,334 L 315,333 L 313,333 L 312,332 L 310,332 L 309,331 L 306,331 L 305,330 L 303,330 L 302,329 L 300,329 L 299,328 L 297,328 L 296,327 L 294,327 L 293,326 L 291,326 L 290,325 L 288,325 L 287,324 L 285,324 L 284,323 L 282,323 L 281,322 L 279,322 L 278,321 L 276,321 L 275,320 L 273,320 L 272,319 L 270,319 L 269,318 L 268,318 L 267,317 L 266,317 L 265,316 L 264,316 L 263,315 L 262,315 L 261,314 L 259,314 L 258,313 L 256,313 L 254,311 L 253,311 L 252,310 L 251,310 L 250,309 L 249,309 L 248,308 L 247,308 L 245,306 L 244,306 L 243,305 L 242,305 L 241,304 L 240,304 L 239,303 L 238,303 L 236,301 L 235,301 L 234,300 L 233,300 L 231,298 L 230,298 L 229,297 L 228,297 L 227,296 L 226,296 L 225,295 L 224,295 L 223,294 L 222,294 L 221,293 L 220,293 L 219,292 L 218,292 L 216,290 L 217,289 L 216,290 L 215,290 L 214,289 L 215,288 L 214,289 L 213,289 L 212,288 L 211,288 L 210,287 L 211,286 L 212,286 L 211,286 L 209,284 L 208,284 L 207,283 L 206,283 L 204,281 L 203,281 L 200,278 L 199,278 L 196,275 L 195,275 L 191,271 L 190,271 L 187,268 L 186,268 L 184,266 L 183,266 L 181,264" stroke="white" fill="none" stroke-width="1"/><path d="M 325,256 L 325,259 L 327,261 L 327,262 L 328,263 L 328,264 L 329,265 L 329,266 L 331,268 L 331,269 L 332,270 L 332,271 L 333,272 L 333,273 L 334,274 L 334,275 L 335,276 L 335,277 L 337,279 L 337,281 L 338,282 L 338,283 L 339,284 L 339,285 L 340,286 L 340,287 L 341,288 L 341,289 L 342,290 L 342,291 L 343,292 L 343,293 L 345,295 L 345,296 L 348,299 L 348,300 L 349,301 L 349,302 L 350,303 L 349,304 L 348,304 L 348,308 L 349,309 L 349,310 L 350,311 L 350,313 L 352,315 L 352,316 L 355,319 L 355,320 L 357,322 L 357,324 L 358,325 L 358,328 L 359,329 L 359,333 L 360,334 L 360,335 L 360,334 L 359,333 L 359,329 L 358,328 L 358,325 L 359,324 L 361,326 L 361,330 L 362,331 L 362,335 L 363,336 L 363,342 L 362,343 L 362,346 L 361,347 L 361,349 L 360,350 L 357,350 L 356,351 L 350,351 L 349,352 L 328,352 L 326,350 L 320,350 L 319,351 L 299,351 L 319,351 L 320,350 L 326,350 L 328,352 L 349,352 L 350,351 L 356,351 L 357,350 L 361,350 L 361,347 L 362,346 L 362,343 L 363,342 L 363,336 L 362,335 L 362,331 L 361,330 L 361,326 L 360,325 L 362,323 L 363,324 L 364,324 L 366,326 L 368,326 L 369,327 L 378,327 L 379,326 L 380,326 L 383,323 L 383,322 L 384,321 L 389,321 L 390,322 L 396,322 L 397,323 L 398,323 L 400,325 L 401,325 L 405,329 L 405,330 L 411,336 L 416,336 L 417,335 L 418,335 L 420,333 L 421,333 L 423,331 L 424,331 L 425,330 L 426,330 L 428,328 L 429,328 L 430,327 L 431,327 L 432,326 L 433,326 L 434,325 L 435,325 L 436,324 L 437,324 L 438,323 L 439,323 L 440,322 L 441,322 L 442,321 L 443,321 L 444,320 L 445,320 L 446,319 L 447,319 L 448,318 L 449,318 L 450,317 L 451,317 L 452,316 L 453,316 L 454,315 L 455,315 L 456,314 L 457,314 L 458,313 L 460,313 L 461,312 L 462,312 L 463,313 L 459,317 L 459,318 L 457,320 L 457,321 L 455,323 L 455,324 L 454,325 L 454,326 L 453,327 L 453,328 L 452,329 L 452,330 L 451,331 L 451,333 L 450,334 L 450,344 L 446,348 L 445,348 L 443,350 L 442,350 L 439,353 L 438,353 L 438,354 L 437,355 L 437,365 L 438,366 L 438,369 L 439,370 L 439,372 L 440,373 L 440,376 L 441,377 L 441,380 L 442,381 L 442,383 L 443,384 L 443,386 L 444,387 L 444,389 L 445,390 L 445,393 L 444,394 L 443,393 L 441,393 L 440,392 L 437,392 L 436,391 L 433,391 L 432,390 L 429,390 L 428,389 L 425,389 L 424,388 L 421,388 L 420,387 L 418,387 L 417,388 L 417,390 L 416,391 L 416,393 L 415,394 L 414,394 L 413,393 L 413,392 L 412,391 L 412,390 L 411,389 L 411,388 L 409,386 L 407,386 L 406,385 L 404,385 L 403,384 L 395,384 L 394,385 L 394,386 L 393,387 L 393,388 L 392,389 L 392,390 L 391,391 L 391,392 L 390,393 L 390,395 L 388,397 L 388,398 L 387,399 L 387,400 L 386,401 L 386,403 L 385,404 L 385,405 L 384,406 L 384,407 L 383,408 L 383,409 L 382,410 L 382,411 L 381,412 L 381,413 L 380,414 L 380,416 L 379,417 L 379,418 L 377,420 L 376,420 L 374,418 L 374,408 L 375,407 L 375,393 L 376,392 L 376,380 L 373,380 L 372,381 L 368,381 L 367,382 L 365,382 L 364,383 L 362,383 L 361,384 L 358,384 L 357,385 L 356,385 L 355,384 L 354,384 L 352,382 L 351,382 L 350,381 L 349,381 L 348,380 L 347,380 L 346,379 L 345,379 L 344,378 L 343,378 L 342,377 L 341,377 L 339,375 L 338,375 L 337,374 L 336,374 L 335,373 L 334,373 L 333,372 L 332,372 L 331,371 L 330,371 L 329,370 L 328,370 L 326,368 L 325,368 L 324,367 L 323,367 L 322,366 L 321,366 L 320,365 L 319,365 L 318,364 L 317,364 L 315,362 L 314,362 L 313,361 L 312,361 L 311,360 L 310,360 L 309,359 L 308,359 L 307,358 L 306,358 L 305,357 L 304,357 L 300,353 L 299,353 L 303,357 L 304,357 L 305,358 L 307,358 L 309,360 L 310,360 L 311,361 L 312,361 L 313,362 L 314,362 L 316,364 L 317,364 L 318,365 L 319,365 L 320,366 L 321,366 L 322,367 L 323,367 L 324,368 L 325,368 L 327,370 L 328,370 L 329,371 L 330,371 L 331,372 L 332,372 L 333,373 L 334,373 L 335,374 L 336,374 L 337,375 L 338,375 L 340,377 L 341,377 L 342,378 L 343,378 L 344,379 L 345,379 L 346,380 L 347,380 L 348,381 L 349,381 L 350,382 L 351,382 L 353,384 L 354,384 L 355,385 L 357,385 L 358,384 L 361,384 L 362,383 L 364,383 L 365,382 L 367,382 L 368,381 L 372,381 L 373,380 L 375,380 L 376,381 L 376,392 L 375,393 L 375,407 L 374,408 L 374,419 L 375,420 L 378,420 L 379,419 L 379,417 L 380,416 L 380,415 L 381,414 L 381,413 L 382,412 L 382,411 L 383,410 L 383,409 L 384,408 L 384,407 L 385,406 L 385,405 L 386,404 L 386,402 L 387,401 L 387,400 L 388,399 L 388,398 L 389,397 L 389,396 L 390,395 L 390,394 L 391,393 L 391,392 L 392,391 L 392,390 L 393,389 L 393,388 L 394,387 L 394,386 L 396,384 L 403,384 L 404,385 L 405,385 L 406,386 L 408,386 L 411,389 L 411,390 L 410,391 L 409,391 L 410,391 L 411,390 L 413,392 L 413,394 L 414,395 L 415,394 L 416,395 L 416,398 L 414,400 L 415,401 L 415,400 L 416,399 L 416,391 L 417,390 L 417,389 L 419,387 L 420,387 L 421,388 L 424,388 L 425,389 L 428,389 L 429,390 L 432,390 L 433,391 L 436,391 L 437,392 L 440,392 L 441,393 L 443,393 L 444,394 L 445,393 L 445,390 L 444,389 L 444,387 L 443,386 L 443,384 L 442,383 L 442,381 L 441,380 L 441,377 L 440,376 L 440,373 L 439,372 L 439,370 L 438,369 L 438,366 L 437,365 L 437,356 L 438,355 L 438,354 L 439,353 L 440,353 L 443,350 L 444,350 L 446,348 L 447,348 L 450,345 L 450,334 L 451,333 L 451,331 L 453,329 L 453,328 L 454,327 L 454,326 L 455,325 L 455,324 L 457,322 L 457,321 L 459,319 L 459,318 L 462,315 L 462,314 L 464,312 L 464,311 L 462,311 L 461,312 L 460,312 L 459,313 L 458,313 L 457,314 L 455,314 L 454,315 L 453,315 L 452,316 L 451,316 L 450,317 L 449,317 L 448,318 L 447,318 L 446,319 L 445,319 L 444,320 L 443,320 L 442,321 L 441,321 L 440,322 L 439,322 L 438,323 L 437,323 L 436,324 L 435,324 L 434,325 L 433,325 L 432,326 L 431,326 L 430,327 L 429,327 L 428,328 L 427,328 L 425,330 L 424,330 L 423,331 L 422,331 L 420,333 L 419,333 L 417,335 L 416,335 L 415,336 L 412,336 L 405,329 L 405,328 L 402,325 L 401,325 L 399,323 L 397,323 L 396,322 L 390,322 L 389,321 L 383,321 L 383,322 L 378,327 L 369,327 L 368,326 L 367,326 L 366,325 L 365,325 L 363,323 L 361,323 L 360,324 L 358,324 L 357,323 L 357,322 L 356,321 L 356,320 L 355,319 L 355,318 L 352,315 L 352,314 L 350,312 L 350,311 L 349,310 L 349,309 L 348,308 L 348,305 L 350,303 L 350,302 L 349,301 L 349,300 L 348,299 L 348,298 L 349,297 L 349,295 L 347,293 L 347,291 L 346,290 L 346,289 L 345,288 L 345,287 L 343,285 L 343,283 L 342,282 L 342,281 L 341,280 L 341,279 L 339,277 L 339,276 L 338,275 L 338,274 L 337,273 L 337,272 L 336,271 L 336,270 L 335,269 L 335,268 L 334,267 L 334,266 L 332,264 L 332,263 L 331,262 L 331,261 L 328,258 L 328,257 L 327,256 L 327,257 L 328,258 L 327,259 L 326,259 L 325,258" stroke="white" fill="none" stroke-width="1"/><path d="M 447,225 L 447,229 L 446,230 L 445,229 L 445,226 L 445,229 L 444,230 L 444,232 L 443,233 L 443,236 L 442,237 L 442,239 L 441,240 L 441,241 L 440,242 L 440,244 L 439,245 L 439,246 L 438,247 L 438,248 L 437,249 L 437,250 L 436,251 L 436,252 L 435,253 L 435,254 L 434,255 L 434,256 L 433,257 L 433,259 L 432,260 L 432,262 L 431,263 L 431,264 L 430,265 L 430,266 L 429,267 L 429,269 L 428,270 L 428,271 L 427,272 L 427,273 L 426,274 L 426,275 L 425,276 L 425,277 L 424,278 L 424,280 L 423,281 L 423,282 L 422,283 L 422,284 L 420,286 L 420,287 L 419,288 L 419,290 L 417,292 L 417,293 L 418,293 L 417,292 L 419,290 L 419,289 L 420,288 L 420,287 L 421,286 L 421,285 L 422,284 L 422,283 L 423,282 L 423,281 L 424,280 L 424,279 L 425,278 L 425,276 L 426,275 L 426,274 L 427,273 L 427,272 L 428,271 L 428,270 L 429,269 L 429,267 L 430,266 L 430,265 L 431,264 L 431,263 L 432,262 L 432,260 L 433,259 L 433,258 L 434,257 L 434,256 L 435,255 L 435,254 L 436,253 L 436,252 L 437,251 L 437,250 L 438,249 L 438,248 L 439,247 L 439,246 L 440,245 L 440,242 L 441,241 L 441,240 L 442,239 L 443,240 L 443,243 L 442,244 L 442,247 L 441,248 L 441,250 L 440,251 L 440,253 L 439,254 L 439,255 L 438,256 L 438,259 L 437,260 L 437,261 L 436,262 L 436,263 L 435,264 L 435,265 L 434,266 L 433,265 L 434,266 L 434,268 L 433,269 L 433,270 L 432,271 L 432,272 L 431,273 L 431,274 L 430,275 L 430,276 L 429,277 L 429,278 L 427,280 L 427,281 L 426,282 L 426,283 L 425,284 L 425,285 L 424,286 L 424,287 L 423,288 L 423,289 L 421,291 L 421,292 L 420,293 L 420,294 L 420,293 L 423,290 L 423,289 L 424,288 L 424,287 L 425,286 L 425,285 L 426,284 L 426,283 L 427,282 L 427,281 L 429,279 L 429,278 L 430,277 L 430,276 L 431,275 L 431,274 L 432,273 L 432,272 L 433,271 L 433,270 L 434,269 L 434,267 L 435,266 L 435,265 L 436,264 L 436,263 L 437,262 L 437,260 L 438,259 L 438,257 L 439,256 L 439,255 L 440,254 L 440,251 L 441,250 L 441,248 L 442,247 L 442,244 L 443,243 L 443,240 L 444,239 L 444,237 L 445,236 L 445,234 L 445,236 L 444,237 L 443,236 L 443,233 L 444,232 L 444,230 L 445,229 L 446,230 L 446,232 L 446,230 L 447,229" stroke="white" fill="none" stroke-width="1"/><path d="M 695,217 L 694,218 L 692,218 L 691,219 L 690,219 L 689,220 L 687,220 L 686,221 L 685,221 L 684,222 L 682,222 L 681,223 L 679,223 L 678,224 L 676,224 L 675,225 L 673,225 L 672,224 L 673,225 L 672,226 L 671,226 L 670,227 L 669,227 L 668,228 L 665,228 L 664,229 L 663,229 L 662,230 L 660,230 L 659,231 L 658,231 L 657,232 L 656,232 L 655,233 L 654,233 L 653,234 L 652,234 L 651,235 L 649,235 L 648,236 L 647,236 L 646,237 L 644,237 L 643,238 L 642,238 L 641,239 L 640,239 L 639,240 L 638,240 L 637,241 L 636,241 L 635,242 L 634,242 L 633,243 L 631,243 L 630,244 L 629,244 L 628,245 L 627,245 L 626,246 L 625,246 L 624,247 L 622,247 L 620,249 L 618,249 L 617,250 L 616,250 L 615,251 L 614,251 L 613,252 L 611,252 L 610,253 L 609,253 L 608,254 L 606,254 L 605,255 L 604,255 L 603,256 L 602,256 L 601,257 L 599,257 L 598,258 L 597,258 L 596,259 L 594,259 L 593,260 L 592,260 L 591,261 L 589,261 L 588,262 L 587,262 L 586,263 L 585,263 L 584,264 L 582,264 L 581,265 L 579,265 L 578,266 L 577,266 L 576,267 L 575,267 L 574,268 L 572,268 L 571,269 L 570,269 L 569,270 L 567,270 L 566,271 L 565,271 L 564,272 L 562,272 L 561,273 L 560,273 L 559,274 L 558,274 L 557,275 L 555,275 L 554,276 L 553,276 L 552,277 L 550,277 L 549,278 L 548,278 L 547,279 L 546,279 L 545,280 L 544,280 L 543,281 L 541,281 L 539,283 L 537,283 L 536,284 L 534,284 L 533,285 L 532,285 L 531,286 L 530,286 L 529,287 L 528,287 L 527,288 L 525,288 L 524,289 L 522,289 L 521,290 L 519,290 L 518,291 L 516,291 L 515,292 L 514,292 L 513,293 L 511,293 L 510,294 L 509,294 L 508,295 L 506,295 L 505,296 L 503,296 L 502,297 L 501,297 L 500,298 L 498,298 L 497,299 L 495,299 L 494,300 L 492,300 L 491,301 L 490,301 L 489,302 L 487,302 L 486,303 L 484,303 L 483,304 L 482,304 L 481,305 L 479,305 L 478,306 L 476,306 L 475,307 L 474,307 L 473,308 L 471,308 L 470,309 L 469,309 L 467,311 L 467,312 L 464,315 L 464,316 L 461,319 L 461,320 L 459,322 L 459,323 L 457,325 L 457,326 L 456,327 L 456,328 L 462,328 L 463,327 L 469,327 L 470,326 L 475,326 L 476,325 L 482,325 L 483,324 L 488,324 L 489,323 L 494,323 L 495,322 L 501,322 L 502,321 L 509,321 L 510,320 L 521,320 L 522,319 L 528,319 L 529,318 L 534,318 L 535,317 L 536,318 L 537,317 L 542,317 L 543,316 L 549,316 L 550,315 L 558,315 L 559,314 L 576,314 L 577,313 L 590,313 L 591,314 L 590,315 L 579,315 L 578,316 L 565,316 L 564,317 L 556,317 L 555,318 L 549,318 L 548,319 L 542,319 L 541,320 L 536,320 L 535,321 L 528,321 L 527,322 L 523,322 L 522,323 L 518,323 L 517,324 L 513,324 L 512,325 L 508,325 L 507,326 L 500,326 L 499,327 L 486,327 L 485,328 L 476,328 L 475,329 L 468,329 L 467,330 L 461,330 L 460,331 L 455,331 L 453,333 L 453,336 L 452,337 L 452,339 L 453,340 L 453,344 L 452,345 L 453,344 L 453,340 L 452,339 L 452,337 L 453,336 L 453,334 L 456,331 L 460,331 L 461,330 L 467,330 L 468,329 L 475,329 L 476,328 L 485,328 L 486,327 L 499,327 L 500,326 L 507,326 L 508,325 L 512,325 L 513,324 L 517,324 L 518,323 L 522,323 L 523,322 L 527,322 L 528,321 L 535,321 L 536,320 L 541,320 L 542,319 L 548,319 L 549,318 L 555,318 L 556,317 L 564,317 L 565,316 L 578,316 L 579,315 L 600,315 L 592,315 L 591,314 L 592,313 L 600,313 L 577,313 L 576,314 L 559,314 L 558,315 L 550,315 L 549,316 L 543,316 L 542,317 L 535,317 L 534,318 L 529,318 L 528,319 L 522,319 L 521,320 L 510,320 L 509,321 L 502,321 L 501,322 L 495,322 L 494,323 L 489,323 L 488,324 L 483,324 L 482,325 L 476,325 L 475,326 L 470,326 L 469,327 L 463,327 L 462,328 L 457,328 L 456,327 L 458,325 L 458,324 L 460,322 L 460,321 L 463,318 L 463,317 L 467,313 L 467,312 L 470,309 L 471,309 L 472,308 L 473,308 L 474,307 L 475,307 L 476,306 L 478,306 L 479,305 L 481,305 L 482,304 L 483,304 L 484,303 L 486,303 L 487,302 L 489,302 L 490,301 L 491,301 L 492,300 L 494,300 L 495,299 L 497,299 L 498,298 L 500,298 L 501,297 L 502,297 L 503,296 L 505,296 L 506,295 L 508,295 L 509,294 L 510,294 L 511,293 L 513,293 L 514,292 L 516,292 L 517,291 L 518,291 L 519,290 L 521,290 L 522,289 L 524,289 L 525,288 L 527,288 L 528,287 L 529,287 L 530,286 L 532,286 L 533,285 L 534,285 L 535,284 L 537,284 L 538,283 L 539,283 L 540,282 L 541,282 L 542,281 L 543,281 L 544,280 L 546,280 L 547,279 L 548,279 L 549,278 L 550,278 L 551,277 L 552,277 L 553,276 L 555,276 L 556,275 L 557,275 L 558,274 L 559,274 L 560,273 L 561,273 L 562,272 L 565,272 L 567,270 L 569,270 L 570,269 L 571,269 L 572,268 L 574,268 L 575,267 L 576,267 L 577,266 L 579,266 L 580,265 L 581,265 L 582,264 L 584,264 L 585,263 L 587,263 L 589,261 L 591,261 L 592,260 L 593,260 L 594,259 L 596,259 L 597,258 L 598,258 L 599,257 L 601,257 L 602,256 L 603,256 L 604,255 L 605,255 L 606,254 L 608,254 L 609,253 L 610,253 L 611,252 L 613,252 L 614,251 L 615,251 L 616,250 L 617,250 L 618,249 L 620,249 L 621,248 L 622,248 L 623,247 L 625,247 L 626,246 L 627,246 L 628,245 L 629,245 L 630,244 L 631,244 L 632,243 L 634,243 L 635,242 L 636,242 L 637,241 L 638,241 L 639,240 L 640,240 L 641,239 L 642,239 L 643,238 L 644,238 L 645,237 L 646,237 L 647,236 L 649,236 L 650,235 L 651,235 L 652,234 L 653,234 L 654,233 L 656,233 L 657,232 L 658,232 L 659,231 L 660,231 L 661,230 L 662,230 L 663,229 L 665,229 L 666,228 L 668,228 L 669,227 L 670,227 L 671,226 L 673,226 L 674,225 L 676,225 L 677,224 L 678,224 L 679,223 L 681,223 L 682,222 L 684,222 L 685,221 L 687,221 L 688,220 L 689,220 L 690,219 L 692,219 L 693,218 L 695,218 L 696,217 L 697,217" stroke="white" fill="none" stroke-width="1"/><path d="M 153,60 L 153,62 L 154,63 L 154,64 L 155,65 L 155,66 L 156,67 L 156,68 L 158,70 L 158,71 L 160,73 L 160,74 L 162,76 L 162,77 L 164,79 L 164,80 L 166,82 L 166,83 L 168,85 L 168,86 L 172,90 L 172,91 L 178,97 L 178,98 L 188,108 L 188,109 L 198,119 L 198,120 L 205,127 L 206,127 L 229,150 L 230,150 L 240,160 L 241,160 L 253,172 L 254,172 L 278,196 L 278,197 L 288,207 L 288,208 L 291,211 L 291,212 L 295,216 L 295,217 L 299,221 L 299,222 L 302,225 L 302,226 L 305,229 L 305,230 L 309,234 L 309,235 L 312,238 L 312,239 L 314,241 L 314,242 L 316,244 L 316,245 L 320,249 L 320,250 L 322,252 L 322,251 L 320,249 L 320,248 L 316,244 L 316,243 L 314,241 L 314,240 L 312,238 L 312,237 L 309,234 L 309,233 L 305,229 L 305,228 L 304,227 L 306,225 L 309,228 L 309,229 L 312,232 L 312,233 L 315,236 L 315,237 L 318,240 L 318,241 L 320,243 L 320,244 L 322,246 L 322,247 L 324,249 L 324,250 L 325,250 L 324,249 L 324,248 L 321,245 L 321,244 L 320,243 L 320,242 L 318,240 L 318,239 L 315,236 L 315,235 L 312,232 L 312,231 L 309,228 L 309,227 L 304,222 L 304,221 L 300,217 L 300,216 L 296,212 L 296,211 L 292,207 L 292,206 L 287,201 L 287,200 L 284,197 L 284,196 L 285,195 L 286,195 L 285,195 L 284,196 L 275,187 L 275,186 L 269,180 L 269,179 L 261,171 L 261,170 L 251,160 L 250,160 L 244,154 L 243,154 L 237,148 L 236,148 L 228,140 L 227,140 L 219,132 L 218,132 L 207,121 L 206,121 L 198,113 L 197,113 L 191,107 L 191,106 L 178,93 L 178,92 L 171,85 L 171,84 L 167,80 L 167,79 L 164,76 L 164,75 L 162,73 L 162,72 L 160,70 L 160,69 L 158,67 L 160,69 L 160,70 L 159,71 L 156,68 L 156,67 L 155,66 L 155,65 L 156,64 L 157,65 L 157,64 L 156,63 L 156,62 L 155,61 L 156,62 L 156,64 L 155,65 L 154,64 L 154,63 L 153,62" stroke="white" fill="none" stroke-width="1"/><path d="M 9,14 L 11,14 L 12,15 L 13,15 L 14,16 L 15,16 L 17,18 L 18,18 L 19,19 L 20,19 L 23,22 L 24,22 L 26,24 L 27,24 L 31,28 L 32,28 L 36,32 L 37,32 L 38,33 L 39,33 L 42,36 L 43,36 L 46,39 L 47,39 L 50,42 L 51,42 L 53,44 L 54,44 L 55,45 L 53,47 L 52,46 L 51,46 L 47,42 L 46,42 L 44,40 L 43,40 L 39,36 L 38,36 L 36,34 L 35,34 L 31,30 L 30,30 L 28,28 L 27,28 L 23,24 L 22,24 L 19,21 L 18,21 L 17,20 L 16,20 L 14,18 L 13,18 L 12,17 L 11,17 L 10,16 L 9,16 L 10,16 L 11,17 L 12,17 L 13,18 L 14,18 L 16,20 L 17,20 L 19,22 L 20,22 L 25,27 L 26,27 L 28,29 L 29,29 L 33,33 L 34,33 L 37,36 L 38,36 L 42,40 L 43,40 L 45,42 L 46,42 L 50,46 L 51,46 L 53,48 L 54,48 L 58,52 L 59,52 L 62,55 L 63,55 L 66,58 L 67,58 L 70,61 L 71,61 L 75,65 L 76,65 L 79,68 L 80,68 L 84,72 L 85,72 L 88,75 L 89,75 L 93,79 L 94,79 L 97,82 L 98,82 L 102,86 L 103,86 L 107,90 L 108,90 L 114,96 L 115,96 L 123,104 L 124,104 L 135,115 L 136,115 L 151,130 L 152,130 L 168,146 L 169,146 L 177,154 L 178,154 L 184,160 L 185,160 L 190,165 L 191,165 L 195,169 L 196,169 L 199,172 L 200,172 L 203,175 L 204,175 L 207,178 L 208,178 L 210,180 L 211,180 L 213,182 L 214,182 L 217,185 L 218,185 L 220,187 L 221,187 L 224,190 L 225,190 L 227,192 L 228,192 L 230,194 L 231,194 L 234,197 L 235,197 L 238,200 L 239,200 L 242,203 L 243,203 L 246,206 L 247,206 L 251,210 L 252,210 L 257,215 L 258,215 L 279,236 L 279,237 L 284,242 L 284,243 L 287,246 L 287,247 L 292,252 L 292,253 L 296,257 L 296,258 L 300,262 L 300,263 L 304,267 L 304,268 L 308,272 L 308,273 L 312,277 L 312,278 L 315,281 L 315,282 L 318,285 L 318,286 L 320,288 L 320,289 L 324,293 L 324,294 L 328,298 L 328,299 L 331,302 L 331,303 L 334,306 L 334,307 L 336,309 L 336,310 L 339,313 L 339,314 L 342,317 L 342,318 L 345,321 L 345,322 L 347,324 L 347,325 L 350,328 L 350,329 L 352,331 L 352,332 L 355,335 L 355,336 L 358,339 L 357,340 L 347,340 L 346,339 L 342,339 L 341,338 L 338,338 L 337,337 L 335,337 L 334,336 L 331,336 L 330,335 L 328,335 L 327,334 L 325,334 L 324,333 L 322,333 L 321,332 L 319,332 L 318,331 L 317,331 L 316,330 L 314,330 L 313,329 L 312,329 L 311,328 L 308,328 L 307,327 L 304,327 L 303,326 L 302,326 L 301,325 L 300,325 L 299,324 L 297,324 L 296,323 L 295,323 L 294,322 L 292,322 L 291,321 L 290,321 L 289,320 L 287,320 L 286,319 L 285,319 L 284,318 L 282,318 L 281,317 L 279,317 L 278,316 L 277,316 L 276,315 L 274,315 L 273,314 L 271,314 L 270,313 L 269,313 L 268,312 L 266,312 L 265,311 L 263,311 L 262,310 L 261,310 L 260,309 L 259,309 L 258,308 L 256,308 L 255,307 L 254,307 L 253,306 L 252,306 L 251,305 L 250,305 L 249,304 L 248,304 L 247,303 L 246,303 L 245,302 L 244,302 L 243,301 L 242,301 L 241,300 L 240,300 L 239,299 L 238,299 L 236,297 L 235,297 L 234,296 L 232,296 L 230,294 L 229,294 L 227,292 L 226,292 L 225,291 L 224,291 L 223,290 L 222,290 L 221,289 L 223,291 L 224,291 L 225,292 L 226,292 L 227,293 L 228,293 L 230,295 L 231,295 L 232,296 L 233,296 L 234,297 L 235,297 L 237,299 L 238,299 L 239,300 L 240,300 L 241,301 L 242,301 L 243,302 L 245,302 L 247,304 L 249,304 L 251,306 L 253,306 L 254,307 L 255,307 L 256,308 L 258,308 L 259,309 L 260,309 L 261,310 L 262,310 L 263,311 L 265,311 L 266,312 L 268,312 L 269,313 L 270,313 L 271,314 L 273,314 L 274,315 L 276,315 L 277,316 L 278,316 L 279,317 L 280,317 L 281,318 L 284,318 L 286,320 L 288,320 L 289,321 L 291,321 L 292,322 L 293,322 L 294,323 L 296,323 L 297,324 L 298,324 L 299,325 L 301,325 L 302,326 L 303,326 L 304,327 L 307,327 L 308,328 L 310,328 L 311,329 L 313,329 L 314,330 L 316,330 L 317,331 L 318,331 L 319,332 L 321,332 L 322,333 L 324,333 L 325,334 L 327,334 L 328,335 L 330,335 L 331,336 L 334,336 L 335,337 L 337,337 L 338,338 L 341,338 L 342,339 L 346,339 L 347,340 L 358,340 L 358,338 L 355,335 L 355,334 L 352,331 L 352,330 L 349,327 L 349,326 L 347,324 L 347,323 L 344,320 L 344,319 L 341,316 L 341,315 L 339,313 L 339,312 L 336,309 L 336,308 L 333,305 L 333,304 L 330,301 L 330,300 L 327,297 L 327,296 L 323,292 L 323,291 L 319,287 L 319,286 L 316,283 L 316,282 L 312,278 L 312,277 L 309,274 L 309,273 L 306,270 L 306,269 L 303,266 L 303,265 L 300,262 L 300,261 L 296,257 L 296,256 L 292,252 L 292,251 L 287,246 L 287,245 L 284,242 L 284,241 L 279,236 L 279,235 L 263,219 L 265,217 L 279,231 L 279,232 L 283,236 L 283,237 L 288,242 L 288,243 L 292,247 L 292,248 L 296,252 L 296,253 L 300,257 L 300,258 L 303,261 L 303,262 L 306,265 L 306,266 L 309,269 L 309,270 L 313,274 L 313,275 L 317,279 L 317,280 L 320,283 L 320,284 L 322,286 L 322,287 L 327,292 L 327,293 L 330,296 L 330,297 L 333,300 L 333,301 L 336,304 L 336,305 L 338,307 L 338,308 L 341,311 L 341,312 L 344,315 L 344,316 L 347,319 L 347,320 L 349,322 L 349,323 L 352,326 L 352,327 L 354,329 L 354,330 L 357,333 L 357,334 L 358,335 L 357,334 L 357,332 L 354,329 L 354,328 L 352,326 L 352,325 L 349,322 L 349,321 L 347,319 L 347,318 L 344,315 L 344,314 L 341,311 L 341,310 L 338,307 L 338,306 L 336,304 L 336,303 L 333,300 L 333,299 L 330,296 L 330,295 L 327,292 L 327,291 L 322,286 L 322,285 L 320,283 L 320,282 L 317,279 L 317,278 L 313,274 L 313,273 L 309,269 L 309,268 L 306,265 L 306,264 L 303,261 L 303,260 L 300,257 L 300,256 L 296,252 L 296,251 L 292,247 L 292,246 L 288,242 L 288,241 L 283,236 L 283,235 L 279,231 L 279,230 L 260,211 L 259,211 L 253,205 L 252,205 L 248,201 L 247,201 L 243,197 L 242,197 L 239,194 L 238,194 L 235,191 L 234,191 L 231,188 L 230,188 L 228,186 L 227,186 L 224,183 L 223,183 L 221,181 L 220,181 L 217,178 L 216,178 L 213,175 L 212,175 L 209,172 L 208,172 L 205,169 L 204,169 L 201,166 L 200,166 L 196,162 L 195,162 L 191,158 L 190,158 L 185,153 L 184,153 L 177,146 L 176,146 L 170,140 L 169,140 L 157,128 L 156,128 L 144,116 L 143,116 L 135,108 L 134,108 L 126,100 L 125,100 L 119,94 L 118,94 L 112,88 L 111,88 L 108,85 L 107,85 L 103,81 L 102,81 L 98,77 L 97,77 L 94,74 L 93,74 L 89,70 L 88,70 L 85,67 L 84,67 L 80,63 L 79,63 L 77,61 L 76,61 L 72,57 L 71,57 L 69,55 L 68,55 L 64,51 L 63,51 L 60,48 L 59,48 L 55,44 L 54,44 L 52,42 L 51,42 L 48,39 L 47,39 L 44,36 L 43,36 L 40,33 L 38,33 L 33,28 L 32,28 L 29,25 L 28,25 L 26,23 L 25,23 L 23,21 L 22,21 L 20,19 L 19,19 L 17,17 L 16,17 L 15,16 L 14,16 L 13,15 L 12,15 L 11,14" stroke="white" fill="none" stroke-width="1"/><path d="M 573,13 L 573,14 L 572,15 L 572,16 L 571,17 L 571,18 L 570,19 L 570,20 L 569,21 L 569,22 L 568,23 L 568,24 L 566,26 L 566,27 L 565,28 L 565,29 L 563,31 L 563,32 L 562,33 L 562,34 L 560,36 L 560,37 L 557,40 L 557,41 L 554,44 L 554,45 L 551,48 L 551,49 L 534,66 L 533,66 L 529,70 L 528,70 L 525,73 L 524,73 L 523,74 L 522,74 L 520,76 L 519,76 L 518,77 L 517,77 L 515,79 L 514,79 L 513,80 L 512,80 L 509,83 L 508,83 L 500,91 L 499,91 L 479,111 L 479,112 L 476,115 L 476,116 L 474,118 L 474,119 L 473,120 L 473,121 L 472,122 L 472,123 L 470,125 L 470,126 L 469,127 L 469,128 L 468,129 L 468,131 L 467,132 L 467,133 L 466,134 L 466,136 L 465,137 L 465,138 L 464,139 L 464,141 L 463,142 L 463,143 L 462,144 L 462,146 L 461,147 L 461,150 L 460,151 L 460,152 L 459,153 L 459,157 L 458,158 L 458,161 L 457,162 L 457,167 L 456,168 L 456,174 L 455,175 L 455,179 L 454,180 L 454,185 L 453,186 L 453,190 L 452,191 L 452,194 L 451,195 L 451,199 L 450,200 L 450,204 L 449,205 L 449,210 L 448,211 L 448,216 L 447,217 L 447,222 L 448,223 L 449,222 L 449,220 L 450,219 L 450,215 L 451,214 L 451,210 L 452,209 L 452,205 L 453,204 L 453,200 L 454,199 L 454,196 L 455,195 L 455,192 L 456,191 L 456,188 L 457,187 L 457,185 L 458,184 L 458,180 L 459,179 L 459,178 L 460,177 L 460,175 L 461,174 L 461,172 L 462,171 L 462,166 L 463,165 L 463,161 L 464,160 L 464,157 L 465,156 L 465,152 L 466,151 L 466,147 L 467,146 L 467,143 L 468,142 L 468,139 L 469,138 L 469,136 L 470,135 L 470,133 L 471,132 L 471,130 L 472,129 L 472,128 L 473,127 L 473,126 L 474,125 L 474,124 L 475,123 L 475,122 L 476,121 L 476,120 L 478,118 L 478,117 L 480,115 L 480,114 L 495,99 L 496,99 L 502,93 L 503,93 L 511,85 L 512,85 L 514,83 L 515,83 L 517,81 L 520,81 L 521,80 L 522,80 L 523,79 L 524,79 L 527,76 L 528,76 L 531,73 L 532,73 L 535,70 L 536,70 L 549,57 L 549,56 L 554,51 L 554,50 L 558,46 L 558,45 L 560,43 L 560,42 L 562,40 L 562,39 L 563,38 L 563,37 L 565,35 L 565,34 L 566,33 L 566,31 L 568,29 L 568,28 L 569,27 L 569,26 L 570,25 L 570,24 L 571,23 L 571,22 L 572,21 L 572,20 L 573,19 L 573,18 L 574,17 L 574,16 L 575,15 L 575,13" stroke="white" fill="none" stroke-width="1"/><path d="M 434,4 L 434,7 L 433,8 L 433,9 L 432,10 L 432,12 L 431,13 L 431,15 L 430,16 L 430,18 L 429,19 L 429,21 L 428,22 L 428,25 L 427,26 L 427,28 L 426,29 L 426,31 L 425,32 L 425,34 L 424,35 L 424,37 L 423,38 L 423,40 L 422,41 L 422,43 L 421,44 L 421,47 L 420,48 L 420,50 L 419,51 L 419,53 L 418,54 L 418,56 L 417,57 L 417,59 L 416,60 L 416,62 L 415,63 L 415,65 L 414,66 L 414,68 L 413,69 L 413,72 L 412,73 L 412,75 L 411,76 L 411,78 L 410,79 L 410,81 L 409,82 L 409,84 L 408,85 L 408,87 L 407,88 L 407,90 L 406,91 L 406,94 L 405,95 L 405,96 L 404,97 L 404,99 L 403,100 L 403,102 L 402,103 L 402,105 L 401,106 L 401,108 L 400,109 L 400,112 L 399,113 L 399,116 L 398,117 L 398,119 L 397,120 L 397,123 L 396,124 L 396,126 L 395,127 L 395,129 L 394,130 L 394,132 L 393,133 L 393,136 L 392,137 L 392,140 L 391,141 L 391,143 L 390,144 L 390,147 L 389,148 L 389,151 L 388,152 L 388,155 L 387,156 L 387,160 L 386,161 L 386,167 L 385,168 L 385,176 L 384,177 L 384,209 L 383,210 L 383,262 L 382,263 L 382,267 L 383,268 L 383,269 L 382,270 L 383,271 L 383,309 L 384,310 L 384,318 L 389,318 L 390,319 L 398,319 L 399,320 L 401,318 L 402,319 L 402,321 L 403,322 L 404,322 L 406,324 L 407,324 L 408,325 L 409,324 L 411,324 L 412,323 L 413,323 L 414,322 L 417,322 L 418,321 L 419,321 L 420,320 L 421,320 L 422,319 L 423,319 L 424,318 L 425,318 L 428,315 L 429,315 L 432,318 L 431,319 L 430,319 L 429,318 L 428,318 L 429,318 L 430,319 L 427,322 L 426,322 L 424,324 L 423,324 L 421,326 L 420,326 L 419,327 L 418,327 L 417,328 L 415,328 L 415,329 L 414,330 L 412,330 L 412,332 L 415,332 L 416,331 L 418,331 L 420,329 L 421,329 L 422,328 L 423,328 L 424,327 L 425,327 L 427,325 L 428,325 L 429,324 L 430,324 L 431,323 L 432,323 L 433,322 L 434,322 L 435,321 L 436,321 L 437,320 L 438,320 L 439,319 L 440,319 L 441,318 L 442,318 L 444,316 L 446,316 L 447,315 L 448,315 L 449,314 L 450,314 L 451,313 L 452,313 L 453,312 L 454,312 L 455,311 L 456,311 L 457,310 L 458,310 L 459,309 L 461,309 L 462,308 L 463,308 L 464,307 L 466,307 L 467,306 L 468,306 L 469,305 L 471,305 L 472,304 L 473,304 L 474,303 L 476,303 L 477,302 L 478,302 L 479,301 L 481,301 L 482,300 L 484,300 L 485,299 L 486,299 L 487,298 L 489,298 L 490,297 L 491,297 L 492,296 L 494,296 L 495,295 L 496,295 L 497,294 L 499,294 L 500,293 L 501,293 L 502,292 L 504,292 L 505,291 L 507,291 L 508,290 L 509,290 L 510,289 L 512,289 L 513,288 L 514,288 L 515,287 L 517,287 L 518,286 L 520,286 L 521,285 L 522,285 L 523,284 L 525,284 L 526,283 L 527,283 L 528,282 L 530,282 L 531,281 L 533,281 L 534,280 L 535,280 L 536,279 L 538,279 L 539,278 L 541,278 L 542,277 L 544,277 L 545,276 L 546,276 L 547,275 L 549,275 L 550,274 L 552,274 L 553,273 L 554,273 L 555,272 L 557,272 L 558,271 L 560,271 L 561,270 L 562,270 L 563,269 L 564,269 L 565,268 L 567,268 L 568,267 L 569,267 L 570,266 L 571,266 L 572,265 L 574,265 L 575,264 L 576,264 L 577,263 L 578,263 L 579,262 L 581,262 L 582,261 L 583,261 L 584,260 L 585,260 L 586,259 L 587,259 L 588,258 L 589,258 L 590,257 L 591,257 L 592,256 L 594,256 L 595,255 L 596,255 L 597,254 L 598,254 L 599,253 L 600,253 L 601,252 L 602,252 L 603,251 L 605,251 L 606,250 L 607,250 L 608,249 L 609,249 L 610,248 L 611,248 L 612,247 L 613,247 L 614,246 L 615,246 L 616,245 L 618,245 L 619,244 L 620,244 L 622,242 L 624,242 L 625,241 L 626,241 L 627,240 L 628,240 L 629,239 L 630,239 L 631,238 L 632,238 L 633,237 L 635,237 L 636,236 L 637,236 L 638,235 L 640,235 L 641,234 L 642,234 L 643,233 L 644,233 L 645,232 L 646,232 L 647,231 L 648,231 L 649,230 L 650,230 L 651,229 L 653,229 L 654,228 L 655,228 L 656,227 L 658,227 L 659,226 L 661,226 L 662,225 L 663,225 L 664,224 L 666,224 L 667,223 L 669,223 L 670,222 L 672,222 L 673,221 L 675,221 L 676,220 L 678,220 L 679,219 L 681,219 L 682,218 L 684,218 L 685,217 L 689,217 L 690,216 L 692,216 L 693,215 L 695,215 L 693,215 L 692,216 L 690,216 L 689,217 L 685,217 L 684,218 L 682,218 L 681,219 L 679,219 L 678,220 L 676,220 L 675,221 L 673,221 L 672,222 L 670,222 L 669,223 L 667,223 L 666,224 L 664,224 L 663,225 L 662,225 L 661,226 L 659,226 L 658,227 L 656,227 L 655,228 L 653,228 L 652,229 L 651,229 L 650,230 L 649,230 L 648,231 L 647,231 L 646,232 L 644,232 L 643,233 L 642,233 L 641,234 L 640,234 L 639,235 L 637,235 L 636,236 L 635,236 L 634,237 L 633,237 L 632,238 L 631,238 L 630,239 L 629,239 L 628,240 L 627,240 L 626,241 L 625,241 L 624,242 L 622,242 L 621,243 L 620,243 L 619,244 L 618,244 L 617,245 L 615,245 L 614,246 L 613,246 L 612,247 L 611,247 L 610,248 L 609,248 L 608,249 L 607,249 L 606,250 L 605,250 L 604,251 L 602,251 L 601,252 L 600,252 L 599,253 L 598,253 L 597,254 L 596,254 L 595,255 L 594,255 L 593,256 L 591,256 L 590,257 L 589,257 L 588,258 L 587,258 L 586,259 L 585,259 L 584,260 L 583,260 L 582,261 L 581,261 L 580,262 L 579,262 L 578,263 L 576,263 L 575,264 L 574,264 L 573,265 L 572,265 L 571,266 L 570,266 L 569,267 L 567,267 L 566,268 L 565,268 L 564,269 L 562,269 L 561,270 L 560,270 L 559,271 L 558,271 L 557,272 L 555,272 L 554,273 L 552,273 L 551,274 L 550,274 L 549,275 L 547,275 L 546,276 L 545,276 L 544,277 L 541,277 L 540,278 L 539,278 L 538,279 L 536,279 L 535,280 L 534,280 L 533,281 L 531,281 L 530,282 L 528,282 L 527,283 L 525,283 L 524,284 L 523,284 L 522,285 L 520,285 L 519,286 L 518,286 L 517,287 L 515,287 L 514,288 L 513,288 L 512,289 L 509,289 L 507,291 L 505,291 L 504,292 L 502,292 L 501,293 L 500,293 L 499,294 L 497,294 L 496,295 L 495,295 L 494,296 L 492,296 L 491,297 L 490,297 L 489,298 L 487,298 L 486,299 L 485,299 L 484,300 L 482,300 L 481,301 L 479,301 L 478,302 L 477,302 L 476,303 L 474,303 L 473,304 L 472,304 L 471,305 L 469,305 L 468,306 L 467,306 L 466,307 L 464,307 L 463,308 L 462,308 L 461,309 L 459,309 L 458,310 L 457,310 L 456,311 L 454,311 L 453,312 L 452,312 L 451,313 L 450,313 L 449,314 L 448,314 L 447,315 L 446,315 L 445,316 L 443,316 L 441,318 L 440,318 L 439,319 L 438,319 L 437,320 L 436,320 L 435,321 L 434,321 L 433,322 L 432,322 L 431,323 L 430,323 L 429,324 L 428,324 L 427,325 L 426,325 L 424,327 L 423,327 L 422,328 L 421,328 L 420,329 L 419,329 L 417,331 L 416,331 L 415,332 L 413,332 L 412,331 L 413,330 L 414,330 L 416,328 L 417,328 L 418,327 L 419,327 L 420,326 L 421,326 L 423,324 L 424,324 L 425,323 L 426,323 L 427,322 L 428,322 L 431,319 L 432,319 L 441,310 L 441,309 L 442,308 L 442,307 L 444,305 L 444,304 L 445,303 L 445,302 L 447,300 L 447,299 L 449,297 L 449,296 L 454,291 L 454,290 L 459,285 L 459,284 L 462,281 L 462,280 L 464,278 L 464,277 L 466,275 L 466,274 L 468,272 L 468,271 L 471,268 L 472,269 L 471,268 L 471,267 L 474,264 L 474,263 L 481,256 L 481,255 L 482,254 L 483,254 L 491,246 L 492,246 L 494,244 L 495,244 L 497,242 L 498,242 L 499,241 L 500,241 L 501,240 L 503,240 L 504,239 L 506,239 L 507,238 L 508,238 L 509,237 L 511,237 L 512,236 L 514,236 L 515,235 L 516,235 L 517,234 L 518,234 L 519,233 L 520,233 L 519,233 L 518,232 L 515,232 L 513,234 L 511,234 L 510,235 L 509,235 L 508,236 L 506,236 L 505,237 L 503,237 L 502,238 L 501,238 L 500,239 L 498,239 L 497,240 L 496,240 L 495,241 L 496,240 L 498,240 L 499,241 L 498,242 L 497,242 L 496,243 L 495,243 L 492,246 L 491,246 L 487,250 L 486,250 L 477,259 L 477,260 L 472,265 L 472,266 L 469,269 L 469,270 L 467,272 L 467,273 L 465,275 L 465,276 L 463,278 L 463,279 L 461,281 L 461,282 L 457,286 L 456,286 L 455,285 L 459,281 L 459,280 L 461,278 L 461,277 L 463,275 L 463,274 L 465,272 L 465,271 L 467,269 L 467,268 L 470,265 L 470,264 L 475,259 L 475,258 L 485,248 L 486,248 L 490,244 L 491,244 L 493,242 L 491,244 L 490,244 L 487,247 L 486,247 L 472,261 L 472,262 L 469,265 L 469,266 L 466,269 L 466,270 L 464,272 L 464,273 L 462,275 L 462,276 L 460,278 L 460,279 L 458,281 L 458,282 L 452,288 L 452,289 L 447,294 L 447,295 L 443,299 L 443,300 L 430,313 L 429,312 L 430,313 L 428,315 L 427,315 L 424,318 L 423,318 L 422,319 L 421,319 L 420,320 L 419,320 L 418,321 L 417,321 L 416,322 L 414,322 L 413,323 L 412,323 L 411,324 L 409,324 L 408,325 L 405,322 L 404,322 L 402,320 L 402,319 L 407,314 L 407,313 L 410,310 L 410,309 L 412,307 L 412,306 L 414,304 L 414,303 L 416,301 L 416,298 L 414,298 L 413,299 L 413,300 L 412,301 L 412,302 L 410,304 L 410,305 L 408,307 L 408,308 L 406,310 L 406,311 L 403,314 L 403,315 L 401,317 L 401,318 L 400,319 L 390,319 L 389,318 L 385,318 L 384,317 L 384,310 L 383,309 L 383,280 L 384,279 L 385,280 L 385,308 L 385,268 L 386,267 L 386,245 L 387,244 L 387,221 L 388,220 L 388,197 L 389,196 L 389,175 L 390,174 L 390,166 L 391,165 L 391,160 L 392,159 L 392,155 L 393,154 L 393,151 L 394,150 L 394,149 L 395,148 L 395,146 L 396,145 L 396,143 L 397,142 L 397,139 L 398,138 L 398,132 L 399,131 L 399,128 L 400,127 L 400,124 L 401,123 L 401,121 L 402,120 L 402,117 L 403,116 L 403,114 L 404,113 L 404,110 L 405,109 L 405,107 L 406,106 L 406,104 L 407,103 L 407,100 L 408,99 L 408,97 L 409,96 L 409,93 L 410,92 L 410,90 L 411,89 L 411,87 L 412,86 L 412,84 L 413,83 L 413,81 L 414,80 L 414,77 L 415,76 L 415,74 L 416,73 L 416,71 L 417,70 L 417,68 L 418,67 L 418,64 L 419,63 L 419,61 L 420,60 L 420,58 L 421,57 L 421,55 L 422,54 L 422,52 L 423,51 L 423,48 L 424,47 L 424,45 L 425,44 L 425,42 L 426,41 L 426,39 L 427,38 L 427,35 L 428,34 L 428,33 L 429,32 L 429,29 L 430,28 L 430,26 L 431,25 L 431,23 L 432,22 L 432,20 L 433,19 L 433,16 L 434,15 L 434,13 L 435,12 L 435,10 L 436,9 L 436,5 L 436,9 L 435,10 L 435,12 L 434,13 L 434,15 L 433,16 L 433,19 L 432,20 L 432,22 L 431,23 L 431,25 L 430,26 L 430,28 L 429,29 L 429,32 L 428,33 L 428,34 L 427,35 L 427,38 L 426,39 L 426,41 L 425,42 L 425,44 L 424,45 L 424,47 L 423,48 L 423,51 L 422,52 L 422,54 L 421,55 L 421,57 L 420,58 L 420,60 L 419,61 L 419,63 L 418,64 L 418,67 L 417,68 L 417,70 L 416,71 L 416,73 L 415,74 L 415,76 L 414,77 L 414,80 L 413,81 L 413,83 L 412,84 L 412,86 L 411,87 L 411,89 L 410,90 L 410,92 L 409,93 L 409,96 L 408,97 L 408,99 L 407,100 L 407,103 L 406,104 L 406,106 L 405,107 L 405,109 L 404,110 L 404,113 L 403,114 L 403,116 L 402,117 L 402,120 L 401,121 L 401,123 L 400,124 L 400,127 L 399,128 L 399,131 L 398,132 L 398,138 L 397,139 L 397,142 L 396,143 L 396,144 L 395,145 L 395,147 L 394,148 L 394,150 L 393,151 L 393,154 L 392,155 L 392,159 L 391,160 L 391,165 L 390,166 L 390,174 L 389,175 L 389,196 L 388,197 L 388,220 L 387,221 L 387,244 L 386,245 L 386,267 L 385,268 L 385,270 L 384,271 L 383,271 L 382,270 L 383,269 L 383,268 L 382,267 L 382,263 L 383,262 L 383,210 L 384,209 L 384,177 L 385,176 L 385,168 L 386,167 L 386,161 L 387,160 L 387,156 L 388,155 L 388,152 L 389,151 L 389,148 L 390,147 L 390,144 L 391,143 L 391,141 L 392,140 L 392,137 L 393,136 L 393,133 L 394,132 L 394,130 L 395,129 L 395,127 L 396,126 L 396,124 L 397,123 L 397,120 L 398,119 L 398,117 L 399,116 L 399,113 L 400,112 L 400,109 L 401,108 L 401,106 L 402,105 L 402,103 L 403,102 L 403,100 L 404,99 L 404,97 L 405,96 L 405,95 L 406,94 L 406,91 L 407,90 L 407,88 L 408,87 L 408,85 L 409,84 L 409,82 L 410,81 L 410,79 L 411,78 L 411,76 L 412,75 L 412,73 L 413,72 L 413,69 L 414,68 L 414,66 L 415,65 L 415,63 L 416,62 L 416,60 L 417,59 L 417,57 L 418,56 L 418,54 L 419,53 L 419,51 L 420,50 L 420,48 L 421,47 L 421,44 L 422,43 L 422,41 L 423,40 L 423,38 L 424,37 L 424,35 L 425,34 L 425,32 L 426,31 L 426,29 L 427,28 L 427,26 L 428,25 L 428,22 L 429,21 L 429,20 L 430,19 L 430,16 L 431,15 L 431,14 L 432,13 L 432,11 L 433,10 L 433,9 L 434,8" stroke="white" fill="none" stroke-width="1"/>
</svg>